<svg xmlns="http://www.w3.org/2000/svg" width="1264" height="800" viewBox="0 0 1264 800">
  <defs>
    <linearGradient id="背景层-a" x1="50%" x2="50%" y1="2.549%" y2="81.549%">
      <stop offset="0%" stop-color="#298AE6"/>
      <stop offset="57.471%" stop-color="#1C48C3"/>
      <stop offset="100%" stop-color="#1837BA"/>
    </linearGradient>
    <linearGradient id="背景层-b" x1="50%" x2="50%" y1="2.549%" y2="100%">
      <stop offset="0%" stop-color="#142CA1"/>
      <stop offset="100%" stop-color="#2611C9"/>
    </linearGradient>
    <linearGradient id="背景层-c" x1="50%" x2="50%" y1="2.549%" y2="100%">
      <stop offset="0%" stop-color="#182E99"/>
      <stop offset="100%" stop-color="#2611C9"/>
    </linearGradient>
    <linearGradient id="背景层-d" x1="100%" x2="0%" y1="50%" y2="50%">
      <stop offset="0%" stop-color="#392DD2"/>
      <stop offset="100%" stop-color="#2615C2"/>
    </linearGradient>
    <linearGradient id="背景层-e" x1="100%" x2="0%" y1="50%" y2="50%">
      <stop offset="0%" stop-color="#392DD2"/>
      <stop offset="100%" stop-color="#2615C2"/>
    </linearGradient>
  </defs>
  <g fill="none" fill-rule="evenodd">
    <polygon fill="url(#背景层-a)" points="0 800 0 0 1264 0 1264 800"/>
    <path fill="url(#背景层-b)" d="M112.573822,395.082123 C83.9743714,396.617036 55.211341,397.938422 26.295003,399.04925 C30.6900216,390.999792 36.0234582,381.254862 39.5793703,374.727672 L60.206552,336.852242 C64.895968,328.301478 72.8041143,328.141438 77.8103869,336.568035 L112.573822,395.082123 L112.573822,395.082123 Z" opacity=".251"/>
    <path fill="url(#背景层-c)" d="M186.322131,390.624098 C149.660979,393.092498 112.710604,395.198493 75.4933153,396.948529 C81.2460176,386.408073 88.6000257,372.973903 93.3995345,364.163983 L119.547702,316.150973 C125.492267,305.311547 135.517075,305.108671 141.863305,315.790696 L186.322131,390.6241 L186.322131,390.624098 Z" opacity=".251"/>
    <path fill="url(#背景层-d)" d="M804.074177,136.869485 C807.689886,143.12356 804.667359,148.297165 797.371109,148.343006 L765.134354,148.575954 C757.856586,148.632338 745.885939,148.69323 738.617948,148.74694 L706.383738,148.989755 C699.094718,149.023055 696.124893,143.913016 699.819896,137.588346 L745.862811,58.7775098 C749.568661,52.4342741 755.542935,52.4016507 759.144183,58.68048 L775.058195,86.3728203 C778.645645,92.6190262 784.578469,102.892967 788.157619,109.167442 L804.074177,136.869485 Z" opacity=".112"/>
    <path fill="url(#背景层-e)" d="M828.536453,89.3676533 C830.615656,92.9640407 828.877561,95.939107 824.681874,95.9654676 L806.144223,96.0994236 C801.959164,96.1318472 795.075479,96.1668629 790.896042,96.1977488 L772.359855,96.3373785 C768.168326,96.3565278 766.460537,93.418015 768.585337,89.7810322 L795.062179,44.461094 C797.193217,40.8134351 800.628706,40.7946751 802.699593,44.4052973 L811.850898,60.3296957 C813.913851,63.9215579 817.325504,69.8295572 819.383683,73.4376752 L828.536453,89.3676533 Z" opacity=".112"/>
  </g>
</svg>
