<?xml version="1.0" encoding="UTF-8"?>
<svg width="93px" height="24px" viewBox="0 0 93 24" version="1.1" xmlns="http://www.w3.org/2000/svg" xmlns:xlink="http://www.w3.org/1999/xlink">
    <!-- Generator: Sketch 51.1 (57501) - http://www.bohemiancoding.com/sketch -->
    <title>Group 2</title>
    <desc>Created with Sketch.</desc>
    <defs></defs>
    <g id="Page-1" stroke="none" stroke-width="1" fill="none" fill-rule="evenodd">
        <g id="大气网格化综合监管平台-copy-13">
            <g id="Group-2">
                <g id="图层_1">
                    <g id="Group">
                        <path d="M11.6921131,2.949 L11.6786156,2.94448 L11.6397205,2.93248 L11.5708353,2.91148 L11.474995,2.88148 L11.3492446,2.84252 L11.1934642,2.79452 L11.0078136,2.73604 L10.7891381,2.66852 L10.7292379,2.65204 L10.6663827,2.63848 L10.598975,2.628 L10.5301298,2.619 L10.4582496,2.61448 L10.3848918,2.61148 L10.3099368,2.613 L10.233584,2.616 L10.1557138,2.62348 L10.0763661,2.63248 L9.9970183,2.64456 L9.91767055,2.65956 L9.83824293,2.67756 L9.75889517,2.69856 L9.67954742,2.72256 L9.6016772,2.74952 L9.52380699,2.77952 L9.44893178,2.81252 L9.37397671,2.84704 L9.30361398,2.886 L9.23325125,2.928 L9.16584359,2.97152 L9.10298835,3.01948 L9.04157072,3.06896 L8.98466556,3.12152 L8.93075541,3.17704 L8.88127787,3.237 L8.83487521,3.29848 L8.79446256,3.363 L8.75852246,3.43048 L8.72857238,3.50096 L8.70313478,3.57296 L8.71207987,3.57448 L8.73903494,3.57596 L8.78096506,3.57748 L8.83787022,3.58048 L8.90679534,3.58352 L8.98466556,3.58652 L9.0715208,3.59104 L9.16584359,3.59556 L9.26467887,3.59856 L9.36650915,3.60312 L9.47137438,3.60612 L9.5746822,3.61064 L9.67651248,3.61212 L9.77383028,3.61516 L9.86523794,3.61664 L9.95057571,3.61664 L10.0523661,3.61516 L10.1512013,3.60916 L10.2470416,3.60012 L10.3399667,3.58808 L10.4312546,3.57308 L10.5181098,3.55508 L10.6034875,3.53408 L10.6858303,3.5116 L10.765178,3.4876 L10.8400932,3.46208 L10.9134908,3.4336 L10.9838536,3.40512 L11.0512213,3.37512 L11.1141165,3.34512 L11.1754942,3.31364 L11.2323993,3.28212 L11.287827,3.25216 L11.338782,3.22064 L11.3867022,3.19064 L11.4301098,3.16068 L11.4720399,3.1322 L11.5094576,3.10364 L11.5439201,3.07812 L11.5753478,3.0526 L11.6262629,3.0106 L11.662203,2.9776 L11.6846855,2.9566 L11.6921131,2.949 L11.6921131,2.949 Z M8.7240599,2.19456 L8.7135574,2.20204 L8.68212978,2.22304 L8.62969717,2.25752 L8.55633943,2.30852 L8.45902163,2.37304 L8.3406589,2.454 L8.1968985,2.55 L8.02921797,2.66252 L7.99327787,2.68804 L7.95881531,2.71652 L7.92283527,2.74652 L7.88689517,2.778 L7.85243261,2.81252 L7.81797005,2.84852 L7.78354742,2.886 L7.74908486,2.925 L7.71613977,2.967 L7.68319468,3.009 L7.65172712,3.054 L7.6202995,3.099 L7.59034942,3.14704 L7.56191681,3.19504 L7.53348419,3.24304 L7.50656905,3.294 L7.47961398,3.345 L7.45557404,3.396 L7.43313145,3.44848 L7.41064892,3.50096 L7.39120133,3.55496 L7.37171381,3.60904 L7.35526123,3.66304 L7.34028619,3.71704 L7.32678869,3.77104 L7.31480865,3.82504 L7.30582363,3.87904 L7.29835607,3.93304 L7.29240599,3.98704 L7.28937105,4.03952 L7.28937105,4.09208 L7.29088852,4.14456 L7.29687854,4.20304 L7.30282862,4.25404 L7.31029617,4.29752 L7.31780366,4.33204 L6.73377704,4.89452 L6.90297504,5.07156 L7.48404659,4.51052 L7.5229817,4.53452 L7.56187687,4.55852 L7.60380699,4.5796 L7.64873211,4.6006 L7.69365724,4.6216 L7.74157737,4.6396 L7.78945757,4.65756 L7.84037271,4.67404 L7.89124792,4.69052 L7.94224293,4.70404 L7.99615308,4.71756 L8.05006323,4.73104 L8.10397338,4.74156 L8.15936106,4.75204 L8.21327121,4.76104 L8.27017637,4.76852 L8.32556406,4.77452 L8.38099168,4.78052 L8.43494176,4.78352 L8.49036938,4.78652 L8.54427953,4.78804 L8.59818968,4.78804 L8.65209983,4.78804 L8.70449251,4.785 L8.75540765,4.782 L8.80480532,4.77748 L8.854203,4.77152 L8.90216306,4.76252 L8.94708819,4.75504 L8.99053577,4.74452 L9.03394343,4.73252 L9.07435607,4.719 L9.17171381,4.68452 L9.26451913,4.65452 L9.34837937,4.62752 L9.42628952,4.60352 L9.49816972,4.58252 L9.56254243,4.56456 L9.62092512,4.54952 L9.6733178,4.536 L9.75717804,4.51652 L9.8170782,4.50448 L9.85150083,4.5 L9.86356073,4.49696 L9.85904825,4.49244 L9.84403328,4.47596 L9.82007321,4.45048 L9.78413311,4.41744 L9.76316805,4.39948 L9.73916805,4.38 L9.71073544,4.359 L9.68078536,4.33648 L9.64636273,4.31548 L9.61042263,4.293 L9.56997005,4.27048 L9.5265624,4.24796 L9.4801198,4.22548 L9.43072213,4.20448 L9.37681198,4.18348 L9.31986689,4.164 L9.25848918,4.14448 L9.19411647,4.12652 L9.12523128,4.11004 L9.05339101,4.09652 L8.97851581,4.083 L8.89765058,4.07396 L8.81375042,4.06496 L8.7253777,4.06044 L8.63404992,4.05744 L8.53673211,4.05744 L8.4364193,4.06196 L8.33155408,4.06792 L8.27464892,4.07092 L8.21327121,4.07396 L8.1488985,4.07696 L8.08001331,4.08152 L8.01112812,4.08604 L7.93928785,4.09204 L7.86732779,4.09656 L7.79548752,4.10256 L7.84340765,4.04552 L7.88833278,3.98704 L7.93178037,3.92856 L7.97227288,3.87008 L8.01268552,3.81308 L8.0515807,3.75756 L8.08756073,3.7066 L8.12350083,3.66156 L8.19685857,3.58052 L8.26426622,3.50252 L8.3271614,3.42452 L8.38254908,3.34952 L8.43502163,3.27604 L8.48146423,3.20404 L8.52339434,3.13508 L8.56081198,3.06752 L8.59375707,3.00152 L8.62370715,2.93856 L8.64918469,2.87704 L8.67162729,2.81708 L8.68959734,2.76008 L8.70604992,2.70608 L8.71954742,2.65356 L8.72849251,2.60404 L8.73747754,2.55604 L8.74199002,2.51256 L8.7465025,2.47056 L8.74801997,2.43156 L8.7494975,2.39408 L8.74801997,2.36108 L8.7465025,2.33112 L8.74350749,2.30264 L8.73751747,2.25612 L8.73156739,2.22312 L8.72557737,2.20212 L8.7240599,2.19456 L8.7240599,2.19456 Z M6.23972047,3.459 L6.23073544,3.46796 L6.2052579,3.49496 L6.16033278,3.53996 L6.0974376,3.60304 L6.01653245,3.68552 L5.9147421,3.789 L5.79346423,3.91196 L5.6512213,4.05592 L5.62127121,4.08748 L5.5928386,4.122 L5.56288852,4.158 L5.53589351,4.197 L5.5074609,4.23748 L5.48050582,4.27948 L5.45502829,4.32296 L5.42959068,4.36796 L5.40563062,4.41596 L5.38167055,4.46392 L5.35918802,4.5134 L5.3382629,4.56448 L5.31729784,4.61696 L5.29781032,4.66944 L5.2798802,4.72344 L5.26342762,4.77744 L5.24845258,4.83296 L5.23495507,4.88844 L5.22297504,4.94396 L5.21099501,5.00096 L5.20200998,5.05652 L5.19454243,5.11352 L5.18859235,5.169 L5.18407987,5.22604 L5.1825624,5.28152 L5.18108486,5.33704 L5.1825624,5.39104 L5.18707488,5.44652 L5.19158735,5.49904 L5.19905491,5.5516 L5.2095574,5.60408 L5.22153744,5.65356 L5.23799002,5.71056 L5.25592013,5.75856 L5.27089517,5.80056 L5.28439268,5.83356 L4.82463894,6.50108 L5.02526456,6.63904 L5.48350083,5.97452 L5.52543095,5.991 L5.56891847,6.00604 L5.61536106,6.01952 L5.66180366,6.03004 L5.71120133,6.04052 L5.760599,6.05104 L5.81151414,6.05852 L5.86390682,6.06448 L5.91781697,6.07048 L5.97172712,6.07348 L6.02571714,6.07652 L6.08110483,6.078 L6.13653245,6.078 L6.19192013,6.07652 L6.24882529,6.075 L6.30421298,6.072 L6.3596406,6.066 L6.41502829,6.06148 L6.47045591,6.054 L6.52444592,6.045 L6.57835607,6.036 L6.63074875,6.02552 L6.68314143,6.015 L6.73405657,6.00152 L6.78345424,5.98796 L6.83137438,5.97296 L6.87777704,5.95792 L6.92270216,5.94144 L6.96614975,5.92348 L7.00664226,5.904 L7.04553744,5.88448 L7.08299501,5.86348 L7.17284526,5.811 L7.25666556,5.76304 L7.33453577,5.71952 L7.40637604,5.68056 L7.47234609,5.64604 L7.53220632,5.61452 L7.58611647,5.58904 L7.63403661,5.565 L7.71190682,5.53052 L7.76881198,5.50644 L7.80175707,5.49292 L7.81225957,5.48992 L7.80626955,5.4854 L7.78981697,5.47188 L7.76138436,5.4524 L7.71945424,5.42688 L7.69549418,5.41336 L7.66706156,5.39836 L7.63559401,5.38336 L7.60264892,5.36832 L7.56523128,5.35332 L7.52481864,5.3398 L7.47989351,5.3248 L7.43345092,5.31128 L7.38405324,5.29928 L7.33014309,5.28876 L7.27323794,5.27828 L7.2133777,5.26928 L7.15048253,5.26332 L7.08307488,5.2588 L7.01418968,5.25728 L6.94075208,5.25728 L6.86288186,5.26028 L6.78201664,5.2648 L6.69819634,5.2738 L6.6113411,5.2858 L6.52001331,5.30228 L6.42561065,5.32176 L6.32829285,5.3458 L6.22646256,5.37276 L6.17107488,5.38628 L6.11117471,5.40128 L6.04827953,5.41776 L5.98382696,5.43576 L5.9164193,5.45376 L5.84757404,5.47324 L5.77721131,5.49272 L5.70832612,5.5122 L5.74274875,5.44772 L5.77569384,5.38172 L5.8071614,5.31572 L5.83559401,5.24972 L5.86402662,5.1852 L5.88950416,5.12524 L5.9164193,5.06676 L5.94189684,5.0142 L5.99732446,4.9212 L6.04827953,4.83124 L6.09472213,4.74276 L6.13513478,4.65876 L6.17107488,4.57628 L6.2025025,4.49672 L6.22941764,4.42024 L6.25341764,4.34524 L6.27286522,4.27476 L6.2893178,4.20724 L6.30129784,4.14124 L6.3117604,4.0782 L6.31926789,4.01972 L6.32378037,3.96272 L6.3252579,3.90872 L6.32677537,3.85772 L6.32378037,3.8112 L6.32074542,3.7662 L6.31623295,3.7242 L6.31024293,3.68524 L6.30425291,3.6492 L6.29678536,3.6162 L6.2893178,3.58616 L6.28185025,3.56064 L6.26515807,3.516 L6.25166057,3.48448 L6.24267554,3.465 L6.23972047,3.459 L6.23972047,3.459 Z M4.24500499,5.51396 L4.24053245,5.52452 L4.2225624,5.55752 L4.19412978,5.61304 L4.15371714,5.69104 L4.10124459,5.79152 L4.03531448,5.91748 L3.95744426,6.069 L3.86463894,6.24448 L3.84666889,6.28348 L3.82869884,6.32396 L3.81224626,6.36596 L3.79579368,6.41096 L3.78233611,6.45748 L3.7688386,6.50552 L3.75685857,6.555 L3.74635607,6.60448 L3.73741098,6.65696 L3.72990349,6.70944 L3.72395341,6.76344 L3.71796339,6.81896 L3.71496839,6.87448 L3.71197338,6.92996 L3.71197338,6.987 L3.71197338,7.044 L3.71496839,7.101 L3.71796339,7.158 L3.72247587,7.215 L3.72994343,7.272 L3.73745092,7.329 L3.74791348,7.38604 L3.75841597,7.44152 L3.77187354,7.49708 L3.78537105,7.55256 L3.80182363,7.60504 L3.81979368,7.65756 L3.83924126,7.71004 L3.86020632,7.75952 L3.88416639,7.809 L3.90812646,7.85552 L3.93508153,7.90204 L3.96950416,7.95156 L3.99945424,7.99356 L4.02640932,8.02956 L4.05036938,8.05804 L3.79579368,8.93852 L4.02788686,9.01952 L4.2825025,8.142 L4.32746755,8.14652 L4.37387022,8.14956 L4.42031281,8.15104 L4.46971048,8.14956 L4.51910815,8.14652 L4.56850582,8.14352 L4.61950083,8.13752 L4.67189351,8.13 L4.72428619,8.12104 L4.7767188,8.11052 L4.82911148,8.09852 L4.88302163,8.085 L4.93541431,8.07152 L4.98784692,8.055 L5.04175707,8.03852 L5.09422962,8.02056 L5.14510483,8.00108 L5.19601997,7.98156 L5.24693511,7.96056 L5.29633278,7.93808 L5.34425291,7.91548 L5.39213311,7.89148 L5.43709817,7.86596 L5.48202329,7.84048 L5.52543095,7.81496 L5.56592346,7.78796 L5.60633611,7.761 L5.64375374,7.73252 L5.67973378,7.70404 L5.71267887,7.67404 L5.74410649,7.64556 L5.7725391,7.61556 L5.8444193,7.53904 L5.91330449,7.46708 L5.98071215,7.39804 L6.04364725,7.33352 L6.16344759,7.21656 L6.26675541,7.11756 L6.35213311,7.03956 L6.41650582,6.98108 L6.45843594,6.94652 L6.47193344,6.933 L6.46446589,6.933 L6.43898835,6.93152 L6.40005324,6.93 L6.34466556,6.92848 L6.2772579,6.93152 L6.19639268,6.93604 L6.15146755,6.94056 L6.10358735,6.94656 L6.05267221,6.95256 L6.00019967,6.96156 L5.94329451,6.9706 L5.88491181,6.9826 L5.82353411,6.99612 L5.76063894,7.01112 L5.69474875,7.02912 L5.6273411,7.0486 L5.55845591,7.07112 L5.48653577,7.09512 L5.4131381,7.1236 L5.33830283,7.1536 L5.26191015,7.1866 L5.18403993,7.2226 L5.10469218,7.2616 L5.02378702,7.3036 L4.94144426,7.35008 L4.85758403,7.39956 L4.80966389,7.42808 L4.75723128,7.45812 L4.70332113,7.4896 L4.64493844,7.52412 L4.58655574,7.56012 L4.52657571,7.59612 L4.46671547,7.6336 L4.40681531,7.6696 L4.41280532,7.6336 L4.41879534,7.5976 L4.42183028,7.55864 L4.42330782,7.52116 L4.42482529,7.44316 L4.42482529,7.3666 L4.42183028,7.29164 L4.42183028,7.21964 L4.42183028,7.18664 L4.42330782,7.15364 L4.42634276,7.12364 L4.43085524,7.09516 L4.45629285,6.99016 L4.4772579,6.88964 L4.49371048,6.79364 L4.50720799,6.70068 L4.51619301,6.61216 L4.52214309,6.52668 L4.52517804,6.4456 L4.52517804,6.3676 L4.52366057,6.29412 L4.51771048,6.22364 L4.510203,6.15764 L4.5012579,6.09464 L4.49075541,6.03468 L4.4772579,5.97912 L4.46380033,5.92664 L4.44882529,5.87716 L4.43237271,5.83216 L4.41592013,5.78864 L4.39946755,5.74968 L4.38153744,5.71368 L4.36508486,5.68068 L4.34863228,5.65216 L4.33213977,5.6252 L4.31568719,5.6012 L4.28873211,5.5622 L4.26624958,5.53524 L4.25103494,5.52 L4.24500499,5.51396 L4.24500499,5.51396 Z M2.89130116,8.00104 L2.88678869,8.01452 L2.87181364,8.05352 L2.84933111,8.12104 L2.81938103,8.21248 L2.78048586,8.331 L2.73703827,8.47352 L2.6876406,8.64152 L2.63365058,8.835 L2.62318802,8.877 L2.614203,8.92204 L2.60673544,8.96856 L2.60074542,9.01656 L2.59623295,9.06604 L2.59475541,9.117 L2.59323794,9.171 L2.59323794,9.225 L2.59623295,9.28052 L2.59926789,9.33752 L2.60521797,9.39456 L2.61120799,9.45304 L2.61867554,9.51152 L2.6291381,9.57 L2.6396406,9.62996 L2.6531381,9.68844 L2.66667554,9.74844 L2.68312812,9.80692 L2.6995807,9.86548 L2.71755075,9.92396 L2.73851581,9.98096 L2.75948087,10.03648 L2.78192346,10.09196 L2.80588353,10.14596 L2.83287854,10.2 L2.85979368,10.251 L2.88826622,10.30048 L2.91817637,10.34852 L2.94964393,10.39504 L2.98258902,10.43852 L3.01553411,10.48052 L3.05147421,10.51952 L3.0949218,10.56152 L3.13381697,10.596 L3.16831947,10.626 L3.19675208,10.647 L3.19371714,11.72248 L3.43930782,11.75244 L3.44230283,10.68148 L3.48722795,10.67696 L3.53215308,10.66796 L3.58007321,10.65896 L3.62803328,10.64544 L3.67595341,10.63044 L3.72535108,10.61396 L3.77626622,10.59448 L3.82566389,10.57348 L3.87657903,10.55096 L3.92749418,10.52696 L3.97836938,10.50144 L4.02928453,10.47296 L4.08019967,10.44448 L4.12963727,10.41448 L4.17903494,10.383 L4.22843261,10.35 L4.27635275,10.31692 L4.32427288,10.2824 L4.37071547,10.24792 L4.41715807,10.21192 L4.46056572,10.17592 L4.50401331,10.13992 L4.54442596,10.10244 L4.58491847,10.06496 L4.62233611,10.02748 L4.65827621,9.99 L4.69273877,9.95252 L4.72416639,9.91504 L4.75411647,9.87904 L4.78107155,9.84304 L4.80503161,9.80552 L4.82747421,9.771 L4.88138436,9.68248 L4.9322995,9.6 L4.98321464,9.52504 L5.03261231,9.45604 L5.07905491,9.39304 L5.12398003,9.336 L5.16591015,9.28504 L5.20484526,9.24004 L5.23926789,9.20104 L5.27221298,9.16652 L5.29916805,9.13804 L5.32312812,9.11556 L5.35459567,9.08556 L5.36657571,9.07508 L5.35906822,9.07656 L5.33510815,9.07656 L5.29621298,9.07956 L5.24529784,9.08556 L5.18092512,9.09604 L5.10453245,9.11252 L5.06112479,9.12152 L5.01759734,9.13352 L4.9696772,9.14704 L4.92027953,9.16352 L4.86788686,9.18 L4.81397671,9.201 L4.75854908,9.22352 L4.70164393,9.24752 L4.64174376,9.276 L4.58028619,9.306 L4.51743095,9.339 L4.45453577,9.37504 L4.38864559,9.41552 L4.32275541,9.45752 L4.25538769,9.50404 L4.1865025,9.555 L4.1176173,9.609 L4.04869218,9.666 L3.97832945,9.72752 L3.90796672,9.79352 L3.88700166,9.813 L3.8630416,9.83552 L3.83908153,9.86256 L3.81212646,9.89104 L3.7552213,9.95252 L3.6968386,10.02004 L3.6354609,10.08904 L3.5755208,10.15656 L3.5171381,10.21952 L3.46322795,10.27352 L3.46175042,10.15352 L3.45723794,10.02008 L3.454203,9.94808 L3.44969052,9.8746 L3.44374043,9.79952 L3.43775042,9.72152 L3.43028286,9.64204 L3.42281531,9.56108 L3.41383028,9.4786 L3.40336772,9.39612 L3.39138769,9.31356 L3.37789018,9.22956 L3.36439268,9.14556 L3.34941764,9.06308 L3.33144759,8.9806 L3.31347754,8.89812 L3.29402995,8.8186 L3.27306489,8.73912 L3.2506223,8.66112 L3.2266223,8.58612 L3.20118469,8.51264 L3.17271215,8.44216 L3.14427953,8.37312 L3.11277205,8.3086 L3.08134443,8.24712 L3.04688186,8.19012 L3.01094176,8.13612 L2.97200666,8.08664 L2.93311148,8.04164 L2.89130116,8.00104 L2.89130116,8.00104 Z M2.04519135,11.031 L2.04519135,11.04452 L2.04519135,11.08648 L2.04670882,11.15696 L2.04818636,11.25448 L2.05269884,11.37752 L2.05868885,11.52752 L2.06915141,11.70296 L2.08264892,11.90252 L2.08564393,11.946 L2.09311148,11.991 L2.10061897,12.03604 L2.112599,12.08404 L2.12457903,12.132 L2.13955408,12.18148 L2.15600666,12.23248 L2.17549418,12.28352 L2.19502163,12.33452 L2.21746423,12.387 L2.24142429,12.43952 L2.26690183,12.492 L2.29533444,12.54448 L2.32376705,12.597 L2.35371714,12.64948 L2.38518469,12.70048 L2.41812978,12.75152 L2.45255241,12.80252 L2.48853245,12.852 L2.52595008,12.89996 L2.56336772,12.94648 L2.60230283,12.993 L2.64271547,13.038 L2.68320799,13.08 L2.7251381,13.122 L2.76858569,13.16096 L2.81199334,13.19844 L2.855401,13.233 L2.90036606,13.26604 L2.94676872,13.29752 L2.99321131,13.32448 L3.03965391,13.35 L3.07108153,13.36352 L3.11001664,13.38 L3.15050915,13.395 L3.19243927,13.41148 L3.23133444,13.425 L3.26727454,13.43852 L3.29718469,13.44752 L3.31814975,13.455 L3.43495507,14.442 L3.67008319,14.421 L3.55914809,13.404 L3.59956073,13.38452 L3.64005324,13.362 L3.67898835,13.33504 L3.71788353,13.30656 L3.75681864,13.27504 L3.79571381,13.24204 L3.83313145,13.20604 L3.87054908,13.16848 L3.90648918,13.12952 L3.94242928,13.08752 L3.97836938,13.04552 L4.01283195,13.00052 L4.04577704,12.95552 L4.07872213,12.909 L4.11022962,12.861 L4.14165724,12.81152 L4.17012978,12.76352 L4.20003993,12.71396 L4.22699501,12.663 L4.25391015,12.61352 L4.27938769,12.56252 L4.30334775,12.51304 L4.32583028,12.46204 L4.34679534,12.41256 L4.36624293,12.36308 L4.38421298,12.31512 L4.40214309,12.2686 L4.41711814,12.22208 L4.43061564,12.17556 L4.44259567,12.13204 L4.45305824,12.09004 L4.46204326,12.04808 L4.48300832,11.9476 L4.50397338,11.85312 L4.52641597,11.7646 L4.55041597,11.68356 L4.57285857,11.60856 L4.59685857,11.5396 L4.6193411,11.47812 L4.64030616,11.4226 L4.65975374,11.37312 L4.67920133,11.33112 L4.69565391,11.29512 L4.70915141,11.26504 L4.73011647,11.22608 L4.73758403,11.21256 L4.73011647,11.21556 L4.70763394,11.22456 L4.67321131,11.2396 L4.62676872,11.2636 L4.59833611,11.2786 L4.56830616,11.29516 L4.53687854,11.31312 L4.50241597,11.33564 L4.46647587,11.35816 L4.42754077,11.38512 L4.38712812,11.4136 L4.34671547,11.44512 L4.30326789,11.47812 L4.25986023,11.5156 L4.21341764,11.55608 L4.16849251,11.59808 L4.12061231,11.64456 L4.07412978,11.69404 L4.02624958,11.74504 L3.97832945,11.80208 L3.93044925,11.86056 L3.88252912,11.92356 L3.83464892,11.98956 L3.78676872,12.06004 L3.73884859,12.13352 L3.69240599,12.21152 L3.64748087,12.29256 L3.60251581,12.37808 L3.58905824,12.40356 L3.57556073,12.43356 L3.56058569,12.46656 L3.54557072,12.50108 L3.51262562,12.57908 L3.47968053,12.66308 L3.44521797,12.74864 L3.41079534,12.83264 L3.37633278,12.91064 L3.34490516,12.9796 L3.30297504,12.86712 L3.25357737,12.74264 L3.19814975,12.60912 L3.13669218,12.46812 L3.10226955,12.39612 L3.06780699,12.32264 L3.03186689,12.24764 L2.99444925,12.17408 L2.95551414,12.09908 L2.9151015,12.02408 L2.87468885,11.9506 L2.83124126,11.87712 L2.78783361,11.80512 L2.74438602,11.7346 L2.69798336,11.6656 L2.65150083,11.59664 L2.60505824,11.53216 L2.55717804,11.46916 L2.50778037,11.40916 L2.4583827,11.35068 L2.40898502,11.29668 L2.35806988,11.24564 L2.30715474,11.19912 L2.25627953,11.15564 L2.20384692,11.11816 L2.15137438,11.08364 L2.0989817,11.05516 L2.04519135,11.031 L2.04519135,11.031 Z M2.10057903,14.03548 L2.10509151,14.05052 L2.12154409,14.09252 L2.14849917,14.163 L2.18899168,14.26056 L2.23990682,14.38504 L2.30427953,14.53352 L2.38067221,14.70904 L2.472,14.907 L2.49292512,14.949 L2.51540765,14.991 L2.5423228,15.03448 L2.57079534,15.078 L2.60222296,15.12148 L2.63668552,15.16652 L2.67266556,15.21152 L2.71008319,15.25504 L2.75049584,15.30004 L2.79242596,15.34356 L2.83583361,15.38704 L2.88227621,15.43056 L2.9287188,15.47252 L2.97811647,15.51452 L3.02751414,15.555 L3.07842928,15.59552 L3.13082196,15.63304 L3.18481198,15.67052 L3.2386822,15.70652 L3.29410982,15.741 L3.34953744,15.774 L3.40492512,15.80552 L3.46187022,15.83548 L3.51877537,15.86248 L3.57715807,15.888 L3.63410316,15.91048 L3.69100832,15.93148 L3.74939101,15.94948 L3.80629617,15.96448 L3.86172379,15.978 L3.91862895,15.987 L3.97401664,15.99448 L4.00995674,15.996 L4.04885191,15.996 L4.08778702,15.996 L4.12827953,15.996 L4.16569717,15.99448 L4.19864226,15.99296 L4.22707488,15.99148 L4.24803993,15.98996 L4.82755408,16.90496 L5.05066223,16.791 L4.51008319,15.843 L4.54155075,15.80696 L4.57150083,15.768 L4.60149085,15.726 L4.62844592,15.681 L4.655401,15.63448 L4.67936106,15.58492 L4.70332113,15.53396 L4.72580366,15.47996 L4.74676872,15.42596 L4.76621631,15.37044 L4.78418636,15.31196 L4.80063894,15.25348 L4.81709151,15.19352 L4.83058902,15.13352 L4.84404659,15.07196 L4.85602662,15.01048 L4.86652912,14.949 L4.87551414,14.88752 L4.8829817,14.82604 L4.89044925,14.76456 L4.89496173,14.70308 L4.89947421,14.643 L4.90246922,14.58304 L4.90546423,14.52456 L4.90546423,14.46608 L4.90546423,14.41056 L4.90398669,14.35508 L4.90099168,14.3026 L4.8964792,14.25008 L4.89196672,14.2006 L4.88597671,14.15408 L4.87850915,14.10908 L4.8605391,13.99808 L4.84556406,13.89312 L4.83358403,13.7956 L4.824599,13.70264 L4.81860899,13.61856 L4.81561398,13.53908 L4.81261897,13.46708 L4.81261897,13.4026 L4.81413644,13.34556 L4.81561398,13.2946 L4.81860899,13.25108 L4.82164393,13.21508 L4.82615641,13.16852 L4.82915141,13.15204 L4.8231614,13.15804 L4.80371381,13.17452 L4.7752812,13.20456 L4.7393411,13.24656 L4.71685857,13.27208 L4.69441597,13.30208 L4.66893844,13.33356 L4.6434609,13.36808 L4.61650582,13.40704 L4.58955075,13.44904 L4.56103827,13.49404 L4.53108819,13.54204 L4.50265557,13.59304 L4.47270549,13.64852 L4.44427288,13.70708 L4.41436273,13.76856 L4.38589018,13.83456 L4.35893511,13.90208 L4.33198003,13.97404 L4.30502496,14.05056 L4.28106489,14.13004 L4.25710483,14.21256 L4.23613977,14.29808 L4.21517471,14.38804 L4.19720466,14.48252 L4.18222962,14.58004 L4.16873211,14.68056 L4.15675208,14.78556 L4.15375707,14.81552 L4.15072213,14.85152 L4.14924459,14.89048 L4.14772712,14.93248 L4.14620965,15.02396 L4.14473211,15.12296 L4.14321464,15.22352 L4.14169717,15.321 L4.13870216,15.41396 L4.13418968,15.49648 L4.04877205,15.39896 L3.95293178,15.29248 L3.9005391,15.23696 L3.84662895,15.17848 L3.78980366,15.12 L3.73142097,15.06 L3.67000333,15 L3.60702829,14.94 L3.54265557,14.87852 L3.47676539,14.81856 L3.40935774,14.75856 L3.34199002,14.6986 L3.27310483,14.64004 L3.2027421,14.58304 L3.1322995,14.52604 L3.06045923,14.47204 L2.98857903,14.41952 L2.91673877,14.37004 L2.84485857,14.32204 L2.77449584,14.27704 L2.70261564,14.23504 L2.63221298,14.19604 L2.56185025,14.16148 L2.49148752,14.13 L2.42260233,14.103 L2.35523461,14.079 L2.28934443,14.061 L2.22493178,14.04748 L2.16199667,14.03852 L2.10057903,14.03548 L2.10057903,14.03548 Z M2.94816639,16.58252 L2.97064892,16.60804 L3.03050915,16.67704 L3.11888186,16.782 L3.2267421,16.90948 L3.34354742,17.05352 L3.46187022,17.20052 L3.5172579,17.274 L3.57116805,17.34296 L3.61908819,17.40896 L3.66109817,17.47048 L3.68953078,17.50796 L3.71948087,17.544 L3.75090849,17.58148 L3.78537105,17.61748 L3.82131115,17.655 L3.85872879,17.691 L3.89914143,17.727 L3.94107155,17.76304 L3.98451913,17.79904 L4.02944426,17.83356 L4.07588686,17.86804 L4.12532446,17.90104 L4.1762396,17.93404 L4.22863228,17.96704 L4.28254243,17.99704 L4.33944759,18.02712 L4.39635275,18.05708 L4.45621298,18.08556 L4.51763062,18.11108 L4.58048586,18.1366 L4.64493844,18.16212 L4.71086855,18.18464 L4.77971381,18.2056 L4.848599,18.22512 L4.9204792,18.24308 L4.99231947,18.25956 L5.06727454,18.2746 L5.14366722,18.2866 L5.22153744,18.29708 L5.29940765,18.30608 L5.38023295,18.31208 L5.46257571,18.3166 L5.50151082,18.31356 L5.54799334,18.31208 L5.59886855,18.31056 L5.64978369,18.31208 L5.70069884,18.31208 L5.74410649,18.31208 L5.76355408,18.31208 L5.78000666,18.31056 L5.79350416,18.30904 L5.80400666,18.30604 L6.48231614,18.97356 L6.67850915,18.81604 L6.03014975,18.10956 L6.05410982,18.06604 L6.07507488,18.01952 L6.09300499,17.96848 L6.10945757,17.91296 L6.12447255,17.85448 L6.13645258,17.79296 L6.14691514,17.72848 L6.15442263,17.66248 L6.16037271,17.59352 L6.16488519,17.52296 L6.1678802,17.44948 L6.16939767,17.37596 L6.1678802,17.301 L6.16640266,17.22448 L6.16189018,17.14796 L6.1573777,17.06996 L6.15138769,16.99344 L6.14392013,16.91696 L6.13493511,16.84044 L6.12595008,16.76544 L6.11548752,16.69044 L6.10350749,16.61848 L6.09152745,16.5464 L6.07802995,16.47744 L6.06305491,16.41144 L6.0495574,16.34696 L6.03454243,16.28544 L6.01956739,16.22696 L6.00303494,16.17144 L5.98658236,16.11896 L5.97012978,16.0724 L5.9536772,16.02892 L5.91326456,15.9224 L5.87436938,15.81744 L5.83990682,15.71544 L5.80843927,15.61644 L5.78000666,15.52188 L5.75309151,15.4334 L5.73060899,15.34788 L5.70964393,15.26988 L5.69319135,15.19792 L5.67821631,15.13492 L5.6647188,15.07788 L5.65573378,15.02988 L5.64826622,14.9924 L5.64231614,14.96388 L5.6392812,14.9474 L5.63780366,14.9414 L5.63329118,14.95188 L5.62131115,14.9834 L5.60182363,15.03436 L5.57638602,15.10336 L5.54795341,15.1904 L5.51640599,15.2924 L5.49995341,15.3494 L5.48350083,15.41088 L5.46704825,15.4754 L5.45059567,15.54436 L5.43562063,15.61492 L5.41916805,15.68992 L5.40567055,15.76792 L5.39217304,15.84888 L5.37871547,15.93136 L5.36673544,16.01836 L5.35775042,16.10692 L5.34876539,16.19688 L5.34277537,16.29136 L5.33830283,16.38584 L5.33526789,16.48336 L5.33526789,16.58236 L5.33678536,16.68436 L5.34277537,16.78632 L5.35028286,16.89132 L5.36074542,16.99628 L5.3652579,17.06084 L5.36977038,17.13436 L5.37428286,17.21384 L5.38027288,17.29932 L5.3862629,17.38632 L5.39225291,17.47332 L5.3997604,17.55736 L5.40722795,17.63688 L5.35783028,17.5994 L5.30392013,17.55892 L5.24553744,17.51836 L5.18264226,17.47636 L5.11675208,17.43288 L5.04782696,17.38784 L4.97594676,17.34284 L4.90111148,17.29784 L4.8247188,17.25284 L4.74389351,17.20784 L4.66302829,17.16284 L4.57912812,17.11784 L4.49526789,17.07284 L4.40841265,17.02924 L4.3215574,16.98576 L4.23470216,16.94528 L4.14632945,16.90476 L4.05795674,16.8658 L3.96958403,16.82832 L3.88125125,16.79232 L3.79439601,16.75932 L3.70754077,16.72932 L3.62212313,16.69932 L3.5382629,16.6738 L3.45592013,16.65132 L3.37657238,16.63032 L3.29870216,16.6138 L3.22230948,16.60028 L3.14895175,16.5898 L3.07854908,16.58228 L3.01261897,16.5808 L2.94816639,16.58252 L2.94816639,16.58252 Z" id="Shape" fill="#FFFFFF"></path>
                        <path d="M12.5307155,2.949 L12.544213,2.94448 L12.5846256,2.93248 L12.6520333,2.91148 L12.7494309,2.88148 L12.8752213,2.84252 L13.0294443,2.79452 L13.2166522,2.73604 L13.4337304,2.66852 L13.4951481,2.65204 L13.5580033,2.63848 L13.6238935,2.628 L13.6928586,2.619 L13.7646988,2.61448 L13.8380566,2.61148 L13.9129318,2.613 L13.990802,2.616 L14.0687121,2.62348 L14.1465824,2.63248 L14.22597,2.64456 L14.3053178,2.65956 L14.386183,2.67756 L14.4655308,2.69856 L14.5448785,2.72256 L14.6227488,2.74952 L14.6991814,2.77952 L14.7755341,2.81252 L14.8488918,2.84704 L14.920772,2.886 L14.9896173,2.928 L15.057025,2.97152 L15.1213977,3.01948 L15.1828552,3.06896 L15.2398003,3.12152 L15.2936705,3.17704 L15.3431082,3.237 L15.3880333,3.29848 L15.4284459,3.363 L15.464386,3.43048 L15.4958536,3.50096 L15.5198136,3.57296 L15.5108286,3.57448 L15.4838735,3.57596 L15.4419834,3.57748 L15.3865557,3.58048 L15.3176705,3.58352 L15.2383228,3.58652 L15.1514676,3.59104 L15.0585824,3.59556 L14.9582696,3.59856 L14.8564792,3.60312 L14.7531714,3.60612 L14.6498636,3.61064 L14.5479534,3.61212 L14.4506356,3.61516 L14.3577903,3.61664 L14.2724526,3.61664 L14.1721398,3.61516 L14.0733045,3.60916 L13.975827,3.6 L13.8830216,3.58796 L13.7931714,3.57296 L13.7048386,3.55496 L13.619421,3.53396 L13.5385557,3.51148 L13.459208,3.48748 L13.3828552,3.46196 L13.3094975,3.43348 L13.2406123,3.405 L13.1732047,3.375 L13.108792,3.345 L13.0489318,3.31352 L12.9905491,3.282 L12.9366389,3.25204 L12.8857238,3.22052 L12.8378436,3.19052 L12.7929185,3.16056 L12.7525058,3.13208 L12.7150083,3.10352 L12.6805458,3.078 L12.6491181,3.05248 L12.598203,3.01048 L12.5607854,2.97748 L12.5383428,2.95648 L12.5307155,2.949 L12.5307155,2.949 Z M15.5002463,2.19456 L15.5107488,2.20204 L15.5406988,2.22304 L15.5930915,2.25752 L15.6680466,2.30852 L15.7638469,2.37304 L15.8836473,2.454 L16.0274077,2.55 L16.1951681,2.66252 L16.2296306,2.68804 L16.2655707,2.71652 L16.3015108,2.74652 L16.3359734,2.778 L16.3719135,2.81252 L16.406376,2.84852 L16.4407987,2.886 L16.4737438,2.925 L16.5082063,2.967 L16.5396739,3.009 L16.5711814,3.054 L16.602609,3.099 L16.6325591,3.14704 L16.6625092,3.19504 L16.6909418,3.24304 L16.7178968,3.294 L16.7433744,3.345 L16.7673344,3.396 L16.7912945,3.44848 L16.8122596,3.50096 L16.8332246,3.55496 L16.8511947,3.60904 L16.8691647,3.66304 L16.8841398,3.71704 L16.8976373,3.77104 L16.9080998,3.82504 L16.9186023,3.87904 L16.9260699,3.93304 L16.9305824,3.98704 L16.9335774,4.03952 L16.9350948,4.09208 L16.9335774,4.14456 L16.9275874,4.20304 L16.9201198,4.25404 L16.9126522,4.29752 L16.9066622,4.33204 L17.4891714,4.89452 L17.3199734,5.07156 L16.7389418,4.51052 L16.7015241,4.53452 L16.6611115,4.55852 L16.6191814,4.5796 L16.5757737,4.6006 L16.5292912,4.6216 L16.4828486,4.6396 L16.4334509,4.65756 L16.3840532,4.67404 L16.333178,4.69052 L16.2807454,4.70404 L16.2283527,4.71756 L16.1744426,4.73104 L16.119015,4.74156 L16.0650649,4.75204 L16.0096373,4.76104 L15.9542097,4.76852 L15.898822,4.77452 L15.8433943,4.78052 L15.7880067,4.78352 L15.732579,4.78652 L15.6786689,4.78804 L15.6247587,4.78804 L15.5722862,4.78804 L15.5198935,4.785 L15.4689784,4.782 L15.4180632,4.77748 L15.3701431,4.77152 L15.3222629,4.76252 L15.2758203,4.75504 L15.2323727,4.74452 L15.1904426,4.73252 L15.15003,4.719 L15.0511547,4.68452 L14.9598669,4.65452 L14.8744892,4.62752 L14.796619,4.60352 L14.7247388,4.58252 L14.6603661,4.56456 L14.6019035,4.54952 L14.5510283,4.536 L14.4671681,4.51652 L14.4072679,4.50448 L14.3728453,4.5 L14.3608652,4.49696 L14.3653777,4.49244 L14.3788353,4.47596 L14.4043128,4.45048 L14.4387754,4.41744 L14.461218,4.39948 L14.485218,4.38 L14.5121331,4.359 L14.5436007,4.33648 L14.5765458,4.31548 L14.6139235,4.293 L14.6529384,4.27048 L14.6963461,4.24796 L14.7427887,4.22548 L14.7937038,4.20448 L14.847614,4.18348 L14.9045191,4.164 L14.9643794,4.14448 L15.028792,4.12652 L15.0976772,4.11004 L15.1696373,4.09652 L15.24599,4.083 L15.3253378,4.07396 L15.409198,4.06496 L15.4975308,4.06044 L15.590376,4.05744 L15.6862562,4.05744 L15.7880865,4.06196 L15.8928719,4.06792 L15.949777,4.07092 L16.0111547,4.07396 L16.0755275,4.07696 L16.142975,4.08152 L16.2132978,4.08604 L16.2836606,4.09204 L16.3555408,4.09656 L16.427421,4.10256 L16.3809784,4.04552 L16.3360532,3.98704 L16.2926057,3.92856 L16.2506755,3.87008 L16.2117804,3.81308 L16.1728453,3.75756 L16.1354276,3.7066 L16.101005,3.66156 L16.0275674,3.58052 L15.9586822,3.50252 L15.8973045,3.42452 L15.8403993,3.34952 L15.7894842,3.27604 L15.741604,3.20404 L15.6996739,3.13508 L15.6622562,3.06752 L15.6293111,3.00152 L15.5993211,2.93856 L15.5738436,2.87704 L15.5528785,2.81708 L15.5334309,2.76008 L15.518416,2.70608 L15.5049185,2.65356 L15.4944559,2.60404 L15.4869884,2.55604 L15.4809983,2.51256 L15.4780033,2.47056 L15.4750083,2.43156 L15.4750083,2.394 L15.4750083,2.361 L15.4764859,2.33104 L15.4795208,2.30256 L15.4854709,2.25604 L15.4929384,2.22304 L15.4989285,2.20204 L15.5002463,2.19456 L15.5002463,2.19456 Z M17.9845857,3.459 L17.9920532,3.46796 L18.0190882,3.49496 L18.0624958,3.53996 L18.125391,3.60304 L18.2077338,3.68552 L18.3080466,3.789 L18.4293245,3.91196 L18.5716473,4.05592 L18.6015574,4.08748 L18.6315075,4.122 L18.6599401,4.158 L18.6883727,4.197 L18.7153278,4.23748 L18.7422429,4.27948 L18.769198,4.32296 L18.7946755,4.36796 L18.8186356,4.41596 L18.8425957,4.46392 L18.8650782,4.5134 L18.8860433,4.56448 L18.9054908,4.61696 L18.9249384,4.66944 L18.9429085,4.72344 L18.9593611,4.77744 L18.974376,4.83296 L18.9893511,4.88844 L19.0013311,4.94396 L19.0118336,5.00096 L19.0208186,5.05652 L19.0282862,5.11352 L19.0342363,5.169 L19.0387488,5.22604 L19.0417837,5.28152 L19.0417837,5.33704 L19.0402662,5.39104 L19.0372712,5.44652 L19.0312812,5.49904 L19.0238136,5.5516 L19.0148286,5.60408 L19.0028486,5.65356 L18.9848785,5.71056 L18.968426,5.75856 L18.953411,5.80056 L18.9384359,5.83356 L19.3996672,6.50108 L19.1990416,6.63904 L18.7392879,5.97452 L18.6973577,5.991 L18.6539501,6.00604 L18.609025,6.01952 L18.5611048,6.03004 L18.5132246,6.04052 L18.4622296,6.05104 L18.4113544,6.05852 L18.3589218,6.06448 L18.3065291,6.07048 L18.252619,6.07348 L18.1971913,6.07652 L18.1432812,6.078 L18.086376,6.078 L18.0309884,6.07652 L17.9755208,6.075 L17.9201331,6.072 L17.863228,6.066 L17.8078403,6.06148 L17.7539301,6.054 L17.6985025,6.045 L17.6445923,6.036 L17.5921997,6.02552 L17.5412845,6.015 L17.4903295,6.00152 L17.4409318,5.98796 L17.3930116,5.97296 L17.346609,5.95792 L17.3016839,5.94144 L17.2582363,5.92348 L17.2163062,5.904 L17.177411,5.88448 L17.1414309,5.86348 L17.0515807,5.811 L16.9676805,5.76304 L16.8897704,5.71952 L16.8179301,5.68056 L16.7520399,5.64604 L16.6921398,5.61452 L16.6382296,5.58904 L16.5903494,5.565 L16.5109218,5.53052 L16.4555341,5.50644 L16.422589,5.49292 L16.410609,5.48992 L16.416599,5.4854 L16.4345691,5.47188 L16.4630017,5.4524 L16.5034143,5.42688 L16.5288918,5.41336 L16.5558469,5.39836 L16.5873544,5.38336 L16.621777,5.36832 L16.6591947,5.35332 L16.6996073,5.3398 L16.7430549,5.3248 L16.7894975,5.31128 L16.8403727,5.29928 L16.8928053,5.28876 L16.9497105,5.27828 L17.0096106,5.26928 L17.0740632,5.26332 L17.1399534,5.2588 L17.2103161,5.25728 L17.2836739,5.25728 L17.3600266,5.26028 L17.4408918,5.2648 L17.524792,5.2738 L17.6116473,5.2858 L17.702975,5.30228 L17.7972978,5.32176 L17.896173,5.3458 L17.9979634,5.37276 L18.0534309,5.38628 L18.1118136,5.40128 L18.1747088,5.41776 L18.240599,5.43576 L18.3080067,5.45376 L18.3768918,5.47324 L18.4457371,5.49272 L18.5161797,5.5122 L18.4801997,5.44772 L18.4472546,5.38172 L18.4173045,5.31572 L18.3888719,5.24972 L18.3604393,5.1852 L18.3334842,5.12524 L18.3080466,5.06676 L18.2825691,5.0142 L18.2256639,4.9212 L18.1747488,4.83124 L18.1298236,4.74276 L18.089371,4.65876 L18.0534309,4.57628 L18.0204859,4.49672 L17.9934908,4.42024 L17.9710083,4.34524 L17.9500433,4.27476 L17.9350682,4.20724 L17.9215707,4.14124 L17.9111082,4.0782 L17.9051181,4.01972 L17.9006057,3.96272 L17.8976106,3.90872 L17.8976106,3.858 L17.8991281,3.81148 L17.9021231,3.76648 L17.9066356,3.72448 L17.9126256,3.68552 L17.9186156,3.64948 L17.9260832,3.61648 L17.9335507,3.58644 L17.9425358,3.56092 L17.9575108,3.51592 L17.9709684,3.4844 L17.9799534,3.46492 L17.9845857,3.459 L17.9845857,3.459 Z M19.9778636,5.51396 L19.9838536,5.52452 L20.0003062,5.55752 L20.0287388,5.61304 L20.0691514,5.69104 L20.1230616,5.79152 L20.1874742,5.91748 L20.266822,6.069 L20.3581498,6.24448 L20.3775973,6.28348 L20.3955674,6.32396 L20.4120599,6.36596 L20.4270349,6.41096 L20.44201,6.45748 L20.45399,6.50552 L20.46597,6.555 L20.4764725,6.60448 L20.4854576,6.65696 L20.4929251,6.70944 L20.5003927,6.76344 L20.5049052,6.81896 L20.5079002,6.87448 L20.5108952,6.92996 L20.5124126,6.987 L20.5108952,7.044 L20.5094176,7.101 L20.5049052,7.158 L20.5003927,7.215 L20.4944027,7.272 L20.4854576,7.329 L20.4764725,7.38604 L20.4644925,7.44152 L20.4524725,7.49708 L20.4374975,7.55256 L20.4210449,7.60504 L20.4030749,7.65756 L20.3835474,7.71004 L20.3625824,7.75952 L20.3401398,7.809 L20.3146622,7.85552 L20.2891847,7.90204 L20.2547621,7.95156 L20.224812,7.99356 L20.1978569,8.02956 L20.1738968,8.05804 L20.4285125,8.93852 L20.1948619,9.01952 L19.9418037,8.142 L19.8968386,8.14652 L19.8504359,8.14956 L19.8025158,8.15104 L19.7545957,8.14956 L19.705198,8.14652 L19.6542829,8.14352 L19.6033677,8.13752 L19.550975,8.13 L19.5000599,8.12104 L19.4461498,8.11052 L19.3936772,8.09852 L19.3412845,8.085 L19.2873744,8.07152 L19.2349817,8.055 L19.1825491,8.03852 L19.1301564,8.02056 L19.0777637,8.00108 L19.0268486,7.98156 L18.9774509,7.96056 L18.9279734,7.93808 L18.8785757,7.91548 L18.832173,7.89148 L18.7857304,7.86596 L18.7422829,7.84048 L18.6988752,7.81496 L18.6569451,7.78796 L18.61801,7.761 L18.5791148,7.73252 L18.5446522,7.70404 L18.5101897,7.67404 L18.4786822,7.64556 L18.4502496,7.61556 L18.3798869,7.53904 L18.3110416,7.46708 L18.2436339,7.39804 L18.1792612,7.33352 L18.0609384,7.21656 L17.9575907,7.11756 L17.872213,7.03956 L17.8063228,6.98108 L17.7659101,6.94652 L17.7509351,6.933 L17.7598802,6.933 L17.7838802,6.93152 L17.8242928,6.93 L17.878203,6.92848 L17.9456106,6.93152 L18.0265158,6.93604 L18.0714409,6.94056 L18.1193611,6.94656 L18.1702762,6.95256 L18.2241864,6.96156 L18.279574,6.9706 L18.3379967,6.9826 L18.3994143,6.99612 L18.4622696,7.01112 L18.5281997,7.02912 L18.5956073,7.0486 L18.66597,7.07112 L18.7378103,7.09512 L18.8096905,7.1236 L18.8860832,7.1536 L18.9625158,7.1866 L19.040386,7.2226 L19.1197338,7.2616 L19.2005591,7.3036 L19.2829018,7.35008 L19.3652446,7.39956 L19.4146423,7.42808 L19.4656373,7.45812 L19.521025,7.4896 L19.57797,7.52412 L19.6363128,7.56012 L19.696213,7.59612 L19.7575907,7.6336 L19.8174908,7.6696 L19.8099834,7.6336 L19.8055108,7.5976 L19.8024759,7.55864 L19.7994809,7.52116 L19.7979634,7.44316 L19.7994809,7.3666 L19.8009983,7.29164 L19.8024759,7.21964 L19.8009983,7.18664 L19.7994809,7.15364 L19.7979634,7.12364 L19.7934509,7.09516 L19.7680133,6.99016 L19.7470483,6.88964 L19.7305957,6.79364 L19.7170982,6.70068 L19.7065957,6.61216 L19.7006057,6.52668 L19.6976106,6.4456 L19.6976106,6.3676 L19.7006057,6.29412 L19.7051181,6.22364 L19.7125857,6.15764 L19.7215707,6.09464 L19.7335507,6.03468 L19.7455308,5.97912 L19.7605058,5.92664 L19.7755208,5.87716 L19.7904958,5.83216 L19.8069484,5.78864 L19.8249185,5.74968 L19.841371,5.71368 L19.8593012,5.68068 L19.8757937,5.65216 L19.8922463,5.6252 L19.9072213,5.6012 L19.9357338,5.5622 L19.9581764,5.53524 L19.9731514,5.5202 L19.9778636,5.51396 L19.9778636,5.51396 Z M21.333005,8.00104 L21.3375175,8.01452 L21.3524925,8.05352 L21.3750549,8.12104 L21.405005,8.21248 L21.4424226,8.331 L21.4858702,8.47352 L21.5367854,8.64152 L21.5906955,8.835 L21.6011581,8.877 L21.6101431,8.92204 L21.6161331,8.96856 L21.6221231,9.01656 L21.6266356,9.06604 L21.6296306,9.117 L21.6296306,9.171 L21.6296306,9.225 L21.6281531,9.28052 L21.6236406,9.33752 L21.6191281,9.39456 L21.6116606,9.45304 L21.6041531,9.51152 L21.595208,9.57 L21.583188,9.62996 L21.571208,9.68844 L21.5562329,9.74844 L21.5412579,9.80692 L21.5248053,9.86548 L21.5053178,9.92396 L21.4858702,9.98096 L21.4649052,10.03648 L21.4409451,10.09196 L21.416985,10.14596 L21.3915075,10.19996 L21.3645524,10.25096 L21.3360399,10.30044 L21.3061298,10.34848 L21.2746622,10.395 L21.2417171,10.43848 L21.2072945,10.48048 L21.1728319,10.51948 L21.1279068,10.56148 L21.0889717,10.59596 L21.0560266,10.62596 L21.0260765,10.64696 L21.030589,11.72244 L20.7849983,11.7524 L20.7820033,10.68144 L20.7370782,10.67692 L20.6906356,10.66792 L20.644193,10.65892 L20.5962729,10.6454 L20.5468752,10.6304 L20.4974775,10.61392 L20.4480799,10.59444 L20.3970849,10.57344 L20.3461697,10.55092 L20.2952945,10.52692 L20.2443794,10.5014 L20.1949817,10.47292 L20.1440666,10.44444 L20.0931913,10.41444 L20.0437937,10.38296 L19.994396,10.34996 L19.9464759,10.31688 L19.8985158,10.28236 L19.8520732,10.24788 L19.8071481,10.21188 L19.7637404,10.17588 L19.7202928,10.13988 L19.6783627,10.1024 L19.6394676,10.06492 L19.6020499,10.02744 L19.5661098,9.98996 L19.5316872,9.95248 L19.5002196,9.915 L19.4703095,9.879 L19.4433544,9.843 L19.4178769,9.80548 L19.3969118,9.77096 L19.3430017,9.68244 L19.2904493,9.6 L19.239574,9.52504 L19.1901764,9.45604 L19.1437338,9.39304 L19.0988087,9.336 L19.058396,9.28504 L19.019421,9.24 L18.9834809,9.201 L18.9519734,9.16648 L18.9235008,9.138 L18.9010582,9.11552 L18.8681131,9.08552 L18.8576106,9.07504 L18.8651181,9.07652 L18.8890782,9.07652 L18.9264958,9.07952 L18.9789684,9.08552 L19.0433411,9.096 L19.1197338,9.11248 L19.1616639,9.12148 L19.206589,9.13348 L19.2529917,9.147 L19.3039068,9.16348 L19.354822,9.17996 L19.4087321,9.20096 L19.4641597,9.22348 L19.5225424,9.24748 L19.5824027,9.27596 L19.6423028,9.30596 L19.705198,9.33896 L19.7695707,9.375 L19.8339834,9.41548 L19.9013511,9.45748 L19.9687987,9.504 L20.0361664,9.55496 L20.1050516,9.60896 L20.1754143,9.66596 L20.245777,9.72748 L20.3161398,9.79348 L20.3595474,9.83548 L20.41202,9.89104 L20.4674476,9.95252 L20.5273078,10.02004 L20.5887255,10.08904 L20.6485857,10.15656 L20.7069684,10.21952 L20.7593611,10.27352 L20.7608785,10.15352 L20.7653511,10.02008 L20.7698636,9.94808 L20.774376,9.8746 L20.7788885,9.79952 L20.7848386,9.72152 L20.7923062,9.64204 L20.8012912,9.56108 L20.8102762,9.4786 L20.8207388,9.39612 L20.8327188,9.31356 L20.8447388,9.22956 L20.8597138,9.14556 L20.8746889,9.06308 L20.8912213,8.9806 L20.9091913,8.89812 L20.9286389,8.8186 L20.9511215,8.73912 L20.9735641,8.66112 L20.9975241,8.58612 L21.0230017,8.51264 L21.0499567,8.44216 L21.0783894,8.37312 L21.109817,8.3086 L21.1427621,8.24712 L21.1772246,8.19012 L21.2131647,8.13612 L21.2505824,8.08664 L21.290995,8.04164 L21.333005,8.00104 L21.333005,8.00104 Z M22.1776373,11.031 L22.1776373,11.04452 L22.1776373,11.08648 L22.1776373,11.15696 L22.1746423,11.25448 L22.1716473,11.37752 L22.1641797,11.52752 L22.1551947,11.70296 L22.1416972,11.90252 L22.1371847,11.946 L22.1311947,11.991 L22.1222097,12.03604 L22.1117072,12.08404 L22.0982496,12.132 L22.0832745,12.18148 L22.066822,12.23248 L22.0488519,12.28352 L22.0279268,12.33452 L22.0054443,12.387 L21.9814842,12.43952 L21.9560067,12.492 L21.9290516,12.54448 L21.900619,12.597 L21.8691913,12.64948 L21.8377637,12.70048 L21.8047388,12.75152 L21.7702762,12.80252 L21.7343361,12.852 L21.698396,12.89996 L21.6609784,12.94648 L21.6220433,12.993 L21.5816306,13.038 L21.5397005,13.08 L21.4977704,13.122 L21.4558403,13.16096 L21.4124326,13.19844 L21.3675075,13.233 L21.3225025,13.26604 L21.2775774,13.29752 L21.2311348,13.32448 L21.1846922,13.35 L21.1517471,13.36352 L21.1143295,13.38 L21.0739168,13.395 L21.0319867,13.41148 L20.991574,13.425 L20.9556339,13.43852 L20.9272013,13.44752 L20.9062363,13.455 L20.789391,14.442 L20.5543028,14.421 L20.6636007,13.404 L20.623188,13.38452 L20.5842928,13.362 L20.5438403,13.33504 L20.5049451,13.30656 L20.46601,13.27504 L20.4285923,13.24204 L20.3911348,13.20604 L20.3537171,13.16848 L20.3162596,13.12952 L20.2803195,13.08752 L20.2458968,13.04552 L20.2114343,13.00052 L20.1784892,12.95552 L20.1455441,12.909 L20.112599,12.861 L20.0826489,12.81152 L20.0526988,12.76352 L20.0242662,12.71396 L19.9958336,12.663 L19.9703561,12.61352 L19.9449185,12.56252 L19.9209185,12.51304 L19.898396,12.46204 L19.8774309,12.41256 L19.8564659,12.36308 L19.8385358,12.31512 L19.8220832,12.2686 L19.8071082,12.22208 L19.7921331,12.17556 L19.7801531,12.13204 L19.7696506,12.09004 L19.762183,12.04808 L19.741218,11.9476 L19.7187754,11.85312 L19.6962928,11.7646 L19.6738103,11.68356 L19.6498502,11.60856 L19.6274077,11.5396 L19.6049251,11.47812 L19.5839601,11.4226 L19.562995,11.37312 L19.5450649,11.33112 L19.5286123,11.29512 L19.5136373,11.26504 L19.4926722,11.22608 L19.4866822,11.21256 L19.4941498,11.21556 L19.5151148,11.22456 L19.5510549,11.2396 L19.5974975,11.2636 L19.6244526,11.2786 L19.6544027,11.29516 L19.6873478,11.31312 L19.7218103,11.33564 L19.7577504,11.35816 L19.7951681,11.38512 L19.8355807,11.4136 L19.8775108,11.44512 L19.9194409,11.47812 L19.9644459,11.5156 L20.009371,11.55608 L20.0558136,11.59808 L20.1022562,11.64456 L20.1501364,11.69404 L20.1980566,11.74504 L20.2459767,11.80208 L20.2938569,11.86056 L20.341777,11.92356 L20.3896572,11.98956 L20.4376173,12.06004 L20.4840599,12.13352 L20.5305025,12.21152 L20.5769052,12.29256 L20.6203527,12.37808 L20.6487854,12.43356 L20.6787354,12.50108 L20.7101631,12.57908 L20.7446256,12.66308 L20.7790882,12.74864 L20.8135108,12.83264 L20.8464559,12.91064 L20.8794809,12.9796 L20.9198935,12.86712 L20.9692912,12.74264 L20.9962463,12.6766 L21.0246789,12.60908 L21.054629,12.5386 L21.087574,12.46812 L21.1205191,12.39612 L21.1549418,12.32264 L21.1908819,12.24764 L21.229777,12.17408 L21.2671947,12.09908 L21.3076073,12.02408 L21.3495374,11.9506 L21.3915474,11.87712 L21.4349551,11.80512 L21.4798802,11.7346 L21.5248453,11.6656 L21.5712479,11.59664 L21.6191681,11.53216 L21.6670483,11.46916 L21.7149684,11.40916 L21.7643661,11.35068 L21.8137637,11.29668 L21.8647188,11.24564 L21.9156339,11.19912 L21.9680266,11.15564 L22.0204193,11.11816 L22.0728519,11.08364 L22.1252446,11.05516 L22.1776373,11.031 L22.1776373,11.031 Z M22.1237271,14.03548 L22.117777,14.05052 L22.102802,14.09252 L22.0743694,14.163 L22.0354742,14.26056 L21.9830416,14.38504 L21.9201864,14.53352 L21.8422762,14.70904 L21.752386,14.907 L21.7314609,14.949 L21.7074609,14.991 L21.6820233,15.03448 L21.6520732,15.078 L21.6206057,15.12148 L21.5876606,15.16652 L21.5517205,15.21152 L21.5143028,15.25504 L21.4738902,15.30004 L21.4319601,15.34356 L21.3870349,15.38704 L21.34203,15.43056 L21.2941498,15.47252 L21.2462296,15.51452 L21.1968319,15.555 L21.1444393,15.59552 L21.0920466,15.63304 L21.039614,15.67052 L20.9857038,15.70652 L20.9303161,15.741 L20.8748486,15.774 L20.8179434,15.80552 L20.7610383,15.83548 L20.7041331,15.86248 L20.647188,15.888 L20.5902829,15.91048 L20.5319002,15.93148 L20.474995,15.94948 L20.4180899,15.96448 L20.3611448,15.978 L20.3042795,15.987 L20.2488519,15.99448 L20.2129118,15.996 L20.1754942,15.996 L20.1350815,15.996 L20.0961464,15.996 L20.0587288,15.99448 L20.0242662,15.99296 L19.9973511,15.99148 L19.9748686,15.98996 L19.396792,16.90496 L19.1721664,16.791 L19.7142629,15.843 L19.6813178,15.80696 L19.6513677,15.768 L19.6229351,15.726 L19.5945025,15.681 L19.569025,15.63448 L19.5435474,15.58492 L19.5195874,15.53396 L19.4986223,15.47996 L19.4776572,15.42596 L19.4582097,15.37044 L19.4386822,15.31196 L19.4222296,15.25348 L19.4072146,15.19352 L19.3922396,15.13352 L19.3802596,15.07196 L19.3682795,15.01048 L19.357777,14.949 L19.348792,14.88752 L19.339807,14.82604 L19.333817,14.76456 L19.327827,14.70308 L19.3233145,14.643 L19.3203195,14.58304 L19.3188419,14.52456 L19.3173245,14.46608 L19.3188419,14.41056 L19.3203195,14.35508 L19.3233145,14.3026 L19.3263494,14.25008 L19.3323394,14.2006 L19.3383295,14.15408 L19.345797,14.10908 L19.3637671,13.99808 L19.3787421,13.89312 L19.3892446,13.7956 L19.3981897,13.70264 L19.4041797,13.61856 L19.4086922,13.53908 L19.4101697,13.46708 L19.4101697,13.4026 L19.4101697,13.34556 L19.4071747,13.2946 L19.4056972,13.25108 L19.4026622,13.21508 L19.3966722,13.16852 L19.3951547,13.15204 L19.4011448,13.15804 L19.4190749,13.17452 L19.4475874,13.20456 L19.485005,13.24656 L19.50597,13.27208 L19.5299301,13.30208 L19.5538902,13.33356 L19.5793278,13.36808 L19.6062829,13.40704 L19.6347155,13.44904 L19.6631481,13.49404 L19.6915807,13.54204 L19.7215308,13.59304 L19.7499634,13.64852 L19.7799135,13.70708 L19.8083461,13.76856 L19.8367787,13.83456 L19.8652113,13.90208 L19.8921664,13.97404 L19.917604,14.05056 L19.9431215,14.13004 L19.9655641,14.21256 L19.9880466,14.29808 L20.0074942,14.38804 L20.0254642,14.48252 L20.0419168,14.58004 L20.0554143,14.68056 L20.0658769,14.78556 L20.0688719,14.81552 L20.0719068,14.85152 L20.0749018,14.89048 L20.0764193,14.93248 L20.0778968,15.02396 L20.0794143,15.12296 L20.0794143,15.22352 L20.0809318,15.321 L20.0839268,15.41396 L20.0898769,15.49648 L20.1737371,15.39896 L20.2710948,15.29248 L20.32197,15.23696 L20.3773977,15.17848 L20.4343428,15.11996 L20.4927255,15.05996 L20.5541032,15 L20.6154809,14.94 L20.6798536,14.87852 L20.7457438,14.81856 L20.8131514,14.75856 L20.8820765,14.6986 L20.9509617,14.64004 L21.0213245,14.58304 L21.0916872,14.52604 L21.16201,14.47204 L21.2338902,14.41952 L21.3057704,14.37004 L21.3776905,14.32204 L21.4495707,14.27704 L21.521411,14.23504 L21.5917737,14.19604 L21.6621364,14.16148 L21.7310216,14.13 L21.7998669,14.103 L21.8672745,14.079 L21.9331647,14.061 L21.9990549,14.04748 L22.0619501,14.03852 L22.1237271,14.03548 L22.1237271,14.03548 Z M21.2746223,16.58252 L21.2536572,16.60804 L21.193797,16.67704 L21.1039468,16.782 L20.997604,16.90948 L20.8793211,17.05352 L20.7624359,17.20052 L20.7055308,17.274 L20.6531381,17.34296 L20.6052579,17.40896 L20.5633278,17.47048 L20.5348952,17.50796 L20.5049451,17.544 L20.472,17.58148 L20.4375374,17.61748 L20.4015973,17.655 L20.3640998,17.691 L20.3252047,17.727 L20.2832745,17.76304 L20.239827,17.79904 L20.1949018,17.83356 L20.1470216,17.86804 L20.097624,17.90104 L20.0467088,17.93404 L19.9943161,17.96704 L19.940406,17.99704 L19.8849384,18.02712 L19.8265557,18.05708 L19.7666955,18.08556 L19.7053178,18.11108 L19.6439401,18.1366 L19.5780499,18.16212 L19.5121597,18.18464 L19.4447521,18.2056 L19.3743095,18.22512 L19.3039468,18.24308 L19.230589,18.25956 L19.1557138,18.2746 L19.0808386,18.2866 L19.0029684,18.29708 L18.9235408,18.30608 L18.8427155,18.31208 L18.7603727,18.3166 L18.7229551,18.31356 L18.6765125,18.31208 L18.6256373,18.31056 L18.5732047,18.31208 L18.523807,18.31208 L18.478802,18.31208 L18.4593544,18.31208 L18.4429018,18.31056 L18.4294043,18.30904 L18.4204193,18.30604 L17.7421098,18.97356 L17.5459567,18.81604 L18.1943561,18.10956 L18.170396,18.06604 L18.1494309,18.01952 L18.1299834,17.96848 L18.1134908,17.91296 L18.0984759,17.85448 L18.0864958,17.79296 L18.0775108,17.72848 L18.0685657,17.66248 L18.0625757,17.59352 L18.0580632,17.52296 L18.0550682,17.44948 L18.0550682,17.376 L18.0550682,17.30104 L18.0580632,17.22452 L18.0610582,17.148 L18.0655707,17.07 L18.0730383,16.99348 L18.0805458,16.917 L18.0880133,16.84048 L18.0984759,16.76548 L18.1089784,16.69048 L18.1209584,16.61852 L18.1329384,16.54644 L18.1464359,16.47748 L18.1598935,16.41148 L18.1749085,16.347 L18.1898835,16.28548 L18.2048985,16.227 L18.2198735,16.17148 L18.2363261,16.119 L18.2527787,16.07244 L18.2692313,16.02896 L18.3111614,15.92244 L18.348579,15.81748 L18.3830017,15.71548 L18.4159867,15.61648 L18.4444193,15.52192 L18.4698569,15.43344 L18.4938968,15.34792 L18.5133844,15.26992 L18.5313145,15.19796 L18.5462895,15.13496 L18.5582696,15.07792 L18.5687321,15.02992 L18.5761997,14.99244 L18.5807121,14.96392 L18.5837471,14.94744 L18.5852246,14.94144 L18.5897371,14.95192 L18.6032346,14.98344 L18.6226822,15.0344 L18.6466423,15.1034 L18.6765923,15.19044 L18.7080599,15.29244 L18.7245524,15.34944 L18.741005,15.41092 L18.7574576,15.47544 L18.7724326,15.5444 L18.7889251,15.61496 L18.8039002,15.68996 L18.8189151,15.76796 L18.8324126,15.84892 L18.8443927,15.9314 L18.8563727,16.0184 L18.8668353,16.10696 L18.8743028,16.19692 L18.8818103,16.2914 L18.8863228,16.38588 L18.8878003,16.4834 L18.8893178,16.5824 L18.8863228,16.6844 L18.8818103,16.78636 L18.8743028,16.89136 L18.8638403,16.99632 L18.8593278,17.06088 L18.8548153,17.1344 L18.8488253,17.21388 L18.8443128,17.29936 L18.8383228,17.38636 L18.8323328,17.47336 L18.8248253,17.5574 L18.8158802,17.63692 L18.8667554,17.59944 L18.9206656,17.55896 L18.9791281,17.5184 L19.0405058,17.4764 L19.106396,17.43292 L19.1752812,17.38788 L19.2471614,17.34288 L19.3220366,17.29788 L19.3999068,17.25288 L19.4792945,17.20788 L19.5601597,17.16288 L19.64402,17.11788 L19.7293577,17.07288 L19.8146955,17.02928 L19.9015507,16.9858 L19.9899634,16.94532 L20.0782962,16.9048 L20.1666689,16.86584 L20.2535241,16.82836 L20.3418968,16.79236 L20.428792,16.75936 L20.5156473,16.72936 L20.601025,16.69936 L20.6848453,16.67384 L20.767188,16.65136 L20.8480532,16.63036 L20.9259634,16.61384 L21.0023161,16.60032 L21.0741963,16.58984 L21.1445591,16.58232 L21.2119667,16.58084 L21.2746223,16.58252 L21.2746223,16.58252 Z" id="Shape" fill="#FFFFFF"></path>
                        <path d="M12.0081065,5.439 L12.3435874,5.448 L12.6759534,5.47352 L13.0024493,5.51552 L13.3244326,5.57256 L13.6418636,5.64604 L13.9518669,5.736 L14.2558802,5.83948 L14.5538636,5.95648 L14.8429018,6.08852 L15.1258702,6.234 L15.3999734,6.39144 L15.6650516,6.56248 L15.9226223,6.74548 L16.1697304,6.94044 L16.4077737,7.14744 L16.6354343,7.36492 L16.8525524,7.59292 L17.059208,7.8314 L17.2538436,8.07892 L17.4365391,8.33688 L17.6072945,8.60244 L17.7645125,8.87692 L17.9097504,9.16044 L18.0415707,9.44996 L18.158376,9.74844 L18.2616839,10.05296 L18.3515341,10.36344 L18.4248918,10.68144 L18.4818369,11.00392 L18.523807,11.33096 L18.5492446,11.66392 L18.5582296,11.99992 L18.5492446,12.33744 L18.523807,12.66892 L18.4818369,12.99748 L18.4248519,13.32 L18.3514942,13.63648 L18.2616439,13.947 L18.1583361,14.25152 L18.0415308,14.55 L17.9097105,14.83952 L17.7644725,15.12296 L17.6072546,15.39748 L17.4364992,15.66452 L17.2538037,15.921 L17.0591681,16.16852 L16.8525125,16.407 L16.6353943,16.63504 L16.4077338,16.85252 L16.1696905,17.05956 L15.9225824,17.25452 L15.6650116,17.43752 L15.3999334,17.60856 L15.1258303,17.76756 L14.8428619,17.91152 L14.5538236,18.04356 L14.2558403,18.16204 L13.951827,18.26552 L13.6418236,18.354 L13.3243927,18.42748 L13.0024093,18.48448 L12.6759135,18.52656 L12.3435474,18.55204 L12.0080666,18.56104 L11.6711082,18.55204 L11.3402196,18.52656 L11.0122463,18.48448 L10.6902629,18.42748 L10.3743095,18.354 L10.0643062,18.26552 L9.76029285,18.16204 L9.46230948,18.04356 L9.17331115,17.91152 L8.89022296,17.76756 L8.6162396,17.60856 L8.34964393,17.43752 L8.09359068,17.25452 L7.84648253,17.05956 L7.60843927,16.85252 L7.3807787,16.63504 L7.1637005,16.407 L6.95700499,16.16852 L6.76236938,15.921 L6.57967388,15.66452 L6.40891847,15.39748 L6.25018303,15.12296 L6.10646256,14.83952 L5.97464226,14.55 L5.8563594,14.25152 L5.75305158,13.947 L5.66467887,13.63648 L5.59132113,13.32 L5.53437604,12.99752 L5.49244592,12.66896 L5.46700832,12.33748 L5.45802329,12 L5.46696839,11.664 L5.49240599,11.33104 L5.53433611,11.004 L5.5912812,10.68152 L5.66463894,10.36352 L5.75301165,10.05304 L5.85631947,9.74852 L5.97460233,9.45004 L6.10642263,9.16052 L6.25014309,8.877 L6.40887854,8.60252 L6.57963394,8.33696 L6.76232945,8.079 L6.95696506,7.83148 L7.16366057,7.593 L7.38073877,7.365 L7.60839933,7.14752 L7.8464426,6.94052 L8.09355075,6.74556 L8.34960399,6.56256 L8.61619967,6.39152 L8.89018303,6.23408 L9.17327121,6.0886 L9.46226955,5.95656 L9.76025291,5.83956 L10.0642662,5.73608 L10.3742696,5.64612 L10.690223,5.57264 L11.0122063,5.5156 L11.3401797,5.4736 L11.6710682,5.44808 L12.0081065,5.439 L12.0081065,5.439 Z M12.0081065,5.72852 L12.1203993,5.73152 L12.2311747,5.739 L12.3405125,5.75404 L12.4483328,5.77352 L12.5546755,5.79752 L12.6579834,5.82752 L12.7598536,5.86204 L12.8586889,5.901 L12.9560067,5.94452 L13.0503694,5.994 L13.1416572,6.04656 L13.2315474,6.10356 L13.3169251,6.16504 L13.3992679,6.23104 L13.4800932,6.30004 L13.5564859,6.372 L13.6283261,6.44852 L13.6972512,6.52804 L13.7616639,6.61052 L13.8230416,6.69752 L13.8799468,6.78604 L13.9338569,6.87752 L13.981777,6.97208 L14.0267022,7.06956 L14.0655973,7.17004 L14.1000599,7.27052 L14.13001,7.37548 L14.15397,7.48056 L14.1734975,7.58852 L14.186995,7.69804 L14.19598,7.81052 L14.198975,7.92304 L14.19598,8.03552 L14.186995,8.14648 L14.1734975,8.256 L14.15397,8.364 L14.13001,8.47056 L14.1000599,8.57404 L14.0655973,8.676 L14.0267022,8.775 L13.981777,8.87252 L13.9338569,8.96708 L13.8799468,9.05856 L13.8230416,9.14856 L13.7616639,9.23404 L13.6972512,9.31652 L13.6283261,9.39608 L13.5564859,9.47256 L13.4800932,9.54604 L13.3992679,9.61504 L13.3169251,9.67952 L13.2315474,9.741 L13.1416572,9.79804 L13.0503694,9.85208 L12.9560067,9.90008 L12.8586889,9.94356 L12.7598536,9.98256 L12.6579834,10.01856 L12.5546755,10.04704 L12.4483328,10.07256 L12.3405125,10.09204 L12.2311747,10.10556 L12.1203993,10.11456 L12.0081065,10.11604 L11.8958136,10.11456 L11.7849983,10.10556 L11.6756606,10.09204 L11.5678403,10.07256 L11.4615374,10.04704 L11.3582296,10.01856 L11.2563594,9.98256 L11.1560466,9.94356 L11.0602063,9.90008 L10.9658835,9.85208 L10.8730383,9.79804 L10.7846656,9.741 L10.6993278,9.67952 L10.6154676,9.61504 L10.5361198,9.54604 L10.4597671,9.47256 L10.3878869,9.39608 L10.3189617,9.31652 L10.2530715,9.23404 L10.1916938,9.14856 L10.1347887,9.05856 L10.082396,8.96708 L10.0344759,8.87252 L9.98955075,8.775 L9.95061564,8.676 L9.91615308,8.57404 L9.88624293,8.47056 L9.86224293,8.364 L9.84271547,8.256 L9.8292579,8.14648 L9.82027288,8.03552 L9.81727787,7.92304 L9.82027288,7.81052 L9.8292579,7.69804 L9.84271547,7.58852 L9.86224293,7.48056 L9.88624293,7.37548 L9.91615308,7.27052 L9.95061564,7.17004 L9.98955075,7.06956 L10.0344759,6.97208 L10.082396,6.87752 L10.1347887,6.78604 L10.1916938,6.69752 L10.2530715,6.61052 L10.3189617,6.52804 L10.3878869,6.44852 L10.4597671,6.372 L10.5361198,6.30004 L10.6154676,6.23104 L10.6993278,6.16504 L10.7846656,6.10356 L10.8730383,6.04656 L10.9658835,5.994 L11.0602063,5.94452 L11.1560466,5.901 L11.2563594,5.86204 L11.3582296,5.82752 L11.4615374,5.79752 L11.5678403,5.77352 L11.6756606,5.75404 L11.7849983,5.739 L11.8958136,5.73152 L12.0081065,5.72852 L12.0081065,5.72852 Z M9.98799334,13.09796 L12.0081065,10.64548 L14.0282196,13.09796 L15.2996206,11.10748 L17.2089185,14.09396 L6.80725458,14.09396 L8.71659235,11.10748 L9.98799334,13.09796 L9.98799334,13.09796 Z M7.25798336,14.67756 L10.6048852,14.67756 L10.6048852,15.09 L7.65032945,15.09 L7.25798336,14.67756 L7.25798336,14.67756 Z M13.4112479,14.67756 L16.7581498,14.67756 L16.3658037,15.09 L13.4112479,15.09 L13.4112479,14.67756 L13.4112479,14.67756 Z M9.30357404,16.827 L8.91126789,16.416 L11.1469817,16.416 L11.1469817,16.827 L9.30357404,16.827 L9.30357404,16.827 Z M12.8691514,16.416 L15.1049052,16.416 L14.712599,16.827 L12.8691514,16.827 L12.8691514,16.416 L12.8691514,16.416 Z M8.47699168,15.95852 L8.08460566,15.54748 L15.9315275,15.54748 L15.5391814,15.95852 L8.47699168,15.95852 L8.47699168,15.95852 Z" id="Shape" fill="#FFFFFF"></path>
                        <path d="M12.0081065,0 L12.6235607,0.01504 L13.2301098,0.06152 L13.827594,0.13952 L14.4176106,0.24456 L14.9956473,0.37952 L15.5631814,0.54152 L16.1203328,0.73056 L16.6639068,0.94504 L17.1940233,1.18652 L17.7106423,1.45204 L18.2123261,1.74152 L18.698995,2.055 L19.1676938,2.38952 L19.6214576,2.74652 L20.0557338,3.12452 L20.4720399,3.52196 L20.8688186,3.93896 L21.2461897,4.37396 L21.6026356,4.82848 L21.936599,5.29796 L22.2495175,5.78548 L22.5385557,6.28796 L22.8036339,6.80548 L23.0447121,7.33648 L23.2588353,7.88096 L23.4475607,8.439 L23.6092912,9.00752 L23.7440666,9.58652 L23.8489318,10.17752 L23.926802,10.776 L23.9732047,11.38352 L23.9881398,12 L23.9731647,12.61648 L23.9267621,13.22404 L23.8488918,13.824 L23.7440266,14.41352 L23.6092512,14.99252 L23.4475208,15.56252 L23.2587953,16.11908 L23.0446722,16.66356 L22.803594,17.19452 L22.5385158,17.71204 L22.2494775,18.21452 L21.9365591,18.70204 L21.6025957,19.17156 L21.2461498,19.62604 L20.8687787,20.06108 L20.472,20.47808 L20.0556938,20.87704 L19.6214176,21.25352 L19.1676539,21.61056 L18.6989551,21.94656 L18.2122862,22.25852 L17.7106023,22.54804 L17.1939834,22.81356 L16.6638669,23.05504 L16.1202928,23.26952 L15.5631414,23.45856 L14.9956073,23.62056 L14.4175707,23.75556 L13.8275541,23.86212 L13.2300699,23.9386 L12.6235208,23.98512 L12.0081065,24 L11.3926522,23.985 L10.7861431,23.93848 L10.1871414,23.862 L9.59860233,23.75544 L9.02060566,23.62044 L8.45151414,23.45844 L7.8958802,23.2694 L7.35230616,23.05492 L6.82222962,22.81344 L6.30557072,22.54792 L5.80392679,22.2584 L5.31721797,21.94644 L4.8484792,21.61044 L4.39471547,21.2534 L3.96043927,20.87692 L3.54413311,20.47796 L3.14583694,20.06096 L2.76994343,19.62592 L2.41353744,19.17144 L2.07813644,18.702 L1.76669551,18.21448 L1.47769717,17.712 L1.21257903,17.19448 L0.971500832,16.66352 L0.757377704,16.11904 L0.568652246,15.56248 L0.406921797,14.99248 L0.272186356,14.41348 L0.165803661,13.824 L0.0894509151,13.22404 L0.0430083195,12.61648 L0.0280732113,12 L0.0430482529,11.38352 L0.0894509151,10.776 L0.165843594,10.17752 L0.27222629,9.58652 L0.40696173,9.00752 L0.56869218,8.439 L0.757417637,7.88096 L0.971540765,7.33648 L1.21261897,6.80548 L1.4777371,6.28796 L1.76673544,5.78548 L2.07817637,5.29796 L2.41365724,4.82848 L2.77006323,4.37396 L3.14595674,3.93896 L3.54425291,3.52196 L3.96055907,3.12452 L4.39483527,2.74652 L4.848599,2.38952 L5.31733777,2.055 L5.80404659,1.74152 L6.30569052,1.45204 L6.82234942,1.18652 L7.35242596,0.94504 L7.896,0.73056 L8.45163394,0.54152 L9.02072546,0.37952 L9.59872213,0.24456 L10.1872612,0.13952 L10.7862629,0.06152 L11.392772,0.01504 L12.0081065,0 L12.0081065,0 Z M12.0081065,0.9 L12.5771581,0.915 L13.1387022,0.95696 L13.6913411,1.02896 L14.2364326,1.12648 L14.7725391,1.251 L15.2966656,1.401 L15.811807,1.575 L16.3149684,1.77452 L16.8046323,1.998 L17.2823161,2.24256 L17.7465824,2.51104 L18.1958336,2.80056 L18.6315874,3.11104 L19.049411,3.43956 L19.4522196,3.78912 L19.8370183,4.15812 L20.2054443,4.54356 L20.5543827,4.94708 L20.8838336,5.3656 L21.1922795,5.80208 L21.4813178,6.25208 L21.7493111,6.71712 L21.9934642,7.1956 L22.2165724,7.68608 L22.4157604,8.19008 L22.5894309,8.70608 L22.7391814,9.23108 L22.8635341,9.76808 L22.9608519,10.31408 L23.0327321,10.8676 L23.0746622,11.43008 L23.0896373,12.00008 L23.0746622,12.57008 L23.0327321,13.13256 L22.9608519,13.68612 L22.8635341,14.23212 L22.7391814,14.76912 L22.5894309,15.29408 L22.4157604,15.81012 L22.2165724,16.31412 L21.9934642,16.8046 L21.7493111,17.28308 L21.4813178,17.74808 L21.1922795,18.1996 L20.8838336,18.6346 L20.5543827,19.0546 L20.2054443,19.4566 L19.8370183,19.84204 L19.4522196,20.21108 L19.049411,20.5606 L18.6315874,20.8906 L18.1958336,21.19956 L17.7465824,21.48908 L17.2823161,21.75752 L16.8046323,22.00208 L16.3149684,22.22556 L15.811807,22.42512 L15.2966656,22.59912 L14.7725391,22.74908 L14.2364326,22.87364 L13.6913411,22.97264 L13.1387022,23.04312 L12.5771581,23.08512 L12.0081065,23.10012 L11.4390549,23.08512 L10.8775108,23.04312 L10.3248719,22.97264 L9.7798203,22.87364 L9.24371381,22.74908 L8.71958735,22.59912 L8.20444592,22.42512 L7.70124459,22.22556 L7.2115807,22.00208 L6.73389684,21.75752 L6.26967055,21.48908 L5.81890183,21.19956 L5.38462562,20.8906 L4.96532446,20.5606 L4.56395341,20.21108 L4.17915474,19.84204 L3.81076872,19.4566 L3.46183028,19.0546 L3.13233943,18.6346 L2.82389351,18.1996 L2.53485524,17.748 L2.26682196,17.283 L2.02266889,16.80452 L1.79956073,16.31404 L1.60037271,15.81004 L1.42666223,15.294 L1.27691181,14.76904 L1.15255907,14.23204 L1.05372379,13.68604 L0.983361065,13.13248 L0.941470882,12.57 L0.926575707,12 L0.941550749,11.43 L0.983440932,10.86752 L1.05380366,10.314 L1.15263894,9.768 L1.27699168,9.231 L1.4267421,8.706 L1.60045258,8.19 L1.7996406,7.686 L2.02274875,7.19552 L2.26690183,6.71704 L2.53493511,6.252 L2.82397338,5.802 L3.1324193,5.36552 L3.46191015,4.947 L3.81084859,4.54348 L4.17923461,4.15804 L4.56403328,3.78904 L4.96540433,3.43948 L5.38470549,3.11096 L5.8189817,2.80048 L6.26975042,2.51096 L6.73397671,2.24248 L7.21166057,1.99792 L7.70132446,1.77444 L8.20452579,1.57492 L8.71966722,1.40092 L9.24379368,1.25092 L9.77990017,1.1264 L10.3249517,1.02888 L10.8775907,0.95688 L11.4391348,0.91492 L12.0081065,0.9 L12.0081065,0.9 Z" id="Shape" fill="#FFFFFF"></path>
                        <polygon id="Shape" fill="#FFFFFF" points="9.21971381 21.69752 7.34783361 21.16348 7.41971381 20.91004 9.34398669 19.53004 8.03077537 19.15652 8.10413311 18.90148 9.81871547 19.39048 9.74535774 19.644 7.8225624 21.02404 9.29159401 21.44252"></polygon>
                        <polygon id="Shape" stroke="#FFFFFF" stroke-width="0.4834" points="9.21971381 21.69752 7.34783361 21.16348 7.41971381 20.91004 9.34398669 19.53004 8.03077537 19.15652 8.10413311 18.90148 9.81871547 19.39048 9.74535774 19.644 7.8225624 21.02404 9.29159401 21.44252"></polygon>
                        <polygon id="Shape" fill="#FFFFFF" points="13.1416572 21.93756 12.7223561 21.93756 12.7223561 20.823 11.6860832 20.823 11.6860832 21.93756 11.2682995 21.93756 11.2682995 19.55404 11.6860832 19.55404 11.6860832 20.55752 12.7223561 20.55752 12.7223561 19.55404 13.1416572 19.55404"></polygon>
                        <polygon id="Shape" stroke="#FFFFFF" stroke-width="0.4834" points="13.1416572 21.93756 12.7223561 21.93756 12.7223561 20.823 11.6860832 20.823 11.6860832 21.93756 11.2682995 21.93756 11.2682995 19.55404 11.6860832 19.55404 11.6860832 20.55752 12.7223561 20.55752 12.7223561 19.55404 13.1416572 19.55404"></polygon>
                        <path d="M16.7686922,20.41804 L16.7836672,20.46452 L16.7956473,20.51104 L16.8061498,20.55604 L16.8136173,20.59956 L16.8181298,20.64156 L16.8196473,20.68352 L16.8181298,20.72404 L16.8136173,20.763 L16.8076273,20.802 L16.7971647,20.83952 L16.7851847,20.87552 L16.7701697,20.91008 L16.7612246,20.92808 L16.7522396,20.9446 L16.7417371,20.96108 L16.7312745,20.97756 L16.7073145,21.00904 L16.6818369,21.04056 L16.6534043,21.07056 L16.6219368,21.09904 L16.5905092,21.129 L16.5574842,21.156 L16.5215441,21.18296 L16.485604,21.20996 L16.4481864,21.23544 L16.4077338,21.26096 L16.3658436,21.28496 L16.322396,21.30896 L16.2789884,21.33148 L16.2325458,21.35396 L16.1846256,21.37652 L16.135228,21.39752 L16.0842729,21.41704 L16.0303627,21.43652 L15.1753478,21.744 L14.3726855,19.50004 L15.2637205,19.18052 L15.3161131,19.16256 L15.3685058,19.14608 L15.419421,19.13104 L15.4688186,19.11904 L15.5166988,19.10856 L15.5631414,19.09956 L15.609624,19.09356 L15.6530316,19.08904 L15.6964792,19.08604 L15.7384093,19.08456 L15.7802995,19.08604 L15.8192346,19.08904 L15.8581697,19.09356 L15.8955874,19.10108 L15.9315275,19.11004 L15.9674676,19.12056 L16.0004126,19.13256 L16.0318802,19.14608 L16.0633078,19.16108 L16.0918203,19.17608 L16.1202529,19.19408 L16.1457304,19.2106 L16.171208,19.23008 L16.1936506,19.2496 L16.2161331,19.27208 L16.2355807,19.29308 L16.2550283,19.31708 L16.2714809,19.34112 L16.2879334,19.3666 L16.3014309,19.3936 L16.3149285,19.42208 L16.3269085,19.45064 L16.3358935,19.48064 L16.3448785,19.50912 L16.3508686,19.5376 L16.3568586,19.5646 L16.3598536,19.5916 L16.3628486,19.6186 L16.3643661,19.64412 L16.3628486,19.66964 L16.361371,19.69364 L16.3568586,19.71764 L16.3523461,19.74168 L16.3463561,19.76416 L16.337371,19.78668 L16.328426,19.80916 L16.3179235,19.83016 L16.304426,19.85116 L16.2774709,19.89016 L16.2505158,19.92768 L16.2206057,19.96368 L16.1906556,19.99668 L16.159228,20.02816 L16.1277604,20.05816 L16.0932978,20.08368 L16.0587953,20.10916 L16.0873078,20.10468 L16.114223,20.10164 L16.141178,20.10016 L16.1680932,20.09864 L16.1950483,20.09712 L16.2219634,20.09712 L16.2489185,20.09864 L16.2758336,20.10016 L16.3013111,20.10316 L16.3282662,20.10616 L16.3551814,20.10916 L16.3806589,20.11516 L16.4330516,20.12716 L16.4854842,20.14068 L16.5109218,20.14968 L16.5349218,20.16016 L16.5588819,20.17216 L16.5814043,20.18416 L16.6023694,20.19768 L16.621817,20.2112 L16.6413045,20.22772 L16.6592346,20.2442 L16.6772047,20.2622 L16.6936572,20.2802 L16.7086323,20.3012 L16.7221298,20.3222 L16.7356273,20.34472 L16.7476073,20.3672 L16.7580699,20.39272 L16.7686922,20.41804 L16.7686922,20.41804 Z M15.9330449,19.59152 L15.9240599,19.57052 L15.9150749,19.55104 L15.9060899,19.53304 L15.8956273,19.51504 L15.8851248,19.49856 L15.8731448,19.48356 L15.8611647,19.46852 L15.8476672,19.45504 L15.8326922,19.44296 L15.8191947,19.43244 L15.8027421,19.42196 L15.7862895,19.41296 L15.7698369,19.40548 L15.7518669,19.39948 L15.7339368,19.39348 L15.7144493,19.389 L15.6950017,19.38448 L15.6755541,19.38148 L15.654589,19.37996 L15.6351414,19.37848 L15.6141764,19.37848 L15.5931314,19.37848 L15.5721664,19.37848 L15.5497238,19.38148 L15.5062762,19.38744 L15.4613511,19.39644 L15.416426,19.40844 L15.3699834,19.42348 L14.8563594,19.608 L15.1048652,20.30396 L15.6005591,20.12548 L15.624599,20.11652 L15.6470815,20.10752 L15.6695241,20.097 L15.6904892,20.08804 L15.7114542,20.076 L15.7309018,20.06552 L15.7503894,20.05352 L15.7683195,20.04152 L15.7862895,20.028 L15.8042596,20.01448 L15.8207121,20.001 L15.8372047,19.986 L15.8536572,19.971 L15.8686323,19.95596 L15.8821298,19.93948 L15.8956273,19.92296 L15.9090849,19.90648 L15.9195874,19.88848 L15.9300499,19.87048 L15.9375175,19.85252 L15.945025,19.833 L15.951015,19.81352 L15.9555275,19.79404 L15.9585225,19.77304 L15.9600399,19.75204 L15.9600399,19.73104 L15.9585225,19.70852 L15.9570449,19.68604 L15.9525324,19.66352 L15.9465424,19.63952 L15.9405524,19.61552 L15.9330449,19.59152 L15.9330449,19.59152 Z M16.3568586,20.565 L16.3463561,20.53948 L16.3358935,20.51548 L16.3239135,20.49296 L16.310416,20.47196 L16.2969185,20.45248 L16.2819434,20.43452 L16.2654908,20.41804 L16.2475208,20.40296 L16.2295907,20.38796 L16.2101032,20.37596 L16.1891381,20.36548 L16.168173,20.35648 L16.1457304,20.34896 L16.1217704,20.34148 L16.0977704,20.33696 L16.0707754,20.33396 L16.0452978,20.33096 L16.0183827,20.33096 L15.9914276,20.32944 L15.96599,20.32944 L15.9120799,20.33244 L15.8581697,20.33844 L15.8027421,20.34744 L15.7488319,20.35944 L15.6934043,20.37444 L15.6380166,20.39244 L15.1932779,20.55296 L15.4792812,21.35244 L15.8731048,21.21144 L15.9105225,21.19792 L15.9479401,21.1844 L15.9824027,21.1694 L16.0153478,21.1544 L16.0482928,21.1394 L16.0797205,21.12292 L16.1082329,21.10792 L16.1366656,21.09144 L16.1635807,21.07496 L16.1890582,21.05848 L16.2130183,21.04196 L16.2355008,21.02396 L16.2564659,21.00596 L16.2759135,20.988 L16.2938835,20.97 L16.3103361,20.952 L16.3267887,20.93252 L16.3402862,20.91304 L16.3522662,20.89204 L16.3627288,20.87096 L16.3717138,20.84848 L16.3777038,20.82596 L16.3836938,20.80344 L16.3866889,20.77944 L16.3897238,20.75544 L16.3897238,20.72992 L16.3882063,20.7044 L16.3852113,20.6774 L16.3806988,20.6504 L16.3747088,20.62192 L16.3657637,20.59496 L16.3568586,20.565 L16.3568586,20.565 Z" id="Shape" fill="#FFFFFF"></path>
                        <path d="M16.7686922,20.41804 L16.7836672,20.46452 L16.7956473,20.51104 L16.8061498,20.55604 L16.8136173,20.59956 L16.8181298,20.64156 L16.8196473,20.68352 L16.8181298,20.72404 L16.8136173,20.763 L16.8076273,20.802 L16.7971647,20.83952 L16.7851847,20.87552 L16.7701697,20.91008 L16.7612246,20.92808 L16.7522396,20.9446 L16.7417371,20.96108 L16.7312745,20.97756 L16.7073145,21.00904 L16.6818369,21.04056 L16.6534043,21.07056 L16.6219368,21.09904 L16.5905092,21.129 L16.5574842,21.156 L16.5215441,21.18296 L16.485604,21.20996 L16.4481864,21.23544 L16.4077338,21.26096 L16.3658436,21.28496 L16.322396,21.30896 L16.2789884,21.33148 L16.2325458,21.35396 L16.1846256,21.37652 L16.135228,21.39752 L16.0842729,21.41704 L16.0303627,21.43652 L15.1753478,21.744 L14.3726855,19.50004 L15.2637205,19.18052 L15.3161131,19.16256 L15.3685058,19.14608 L15.419421,19.13104 L15.4688186,19.11904 L15.5166988,19.10856 L15.5631414,19.09956 L15.609624,19.09356 L15.6530316,19.08904 L15.6964792,19.08604 L15.7384093,19.08456 L15.7802995,19.08604 L15.8192346,19.08904 L15.8581697,19.09356 L15.8955874,19.10108 L15.9315275,19.11004 L15.9674676,19.12056 L16.0004126,19.13256 L16.0318802,19.14608 L16.0633078,19.16108 L16.0918203,19.17608 L16.1202529,19.19408 L16.1457304,19.2106 L16.171208,19.23008 L16.1936506,19.2496 L16.2161331,19.27208 L16.2355807,19.29308 L16.2550283,19.31708 L16.2714809,19.34112 L16.2879334,19.3666 L16.3014309,19.3936 L16.3149285,19.42208 L16.3269085,19.45064 L16.3358935,19.48064 L16.3448785,19.50912 L16.3508686,19.5376 L16.3568586,19.5646 L16.3598536,19.5916 L16.3628486,19.6186 L16.3643661,19.64412 L16.3628486,19.66964 L16.361371,19.69364 L16.3568586,19.71764 L16.3523461,19.74168 L16.3463561,19.76416 L16.337371,19.78668 L16.328426,19.80916 L16.3179235,19.83016 L16.304426,19.85116 L16.2774709,19.89016 L16.2505158,19.92768 L16.2206057,19.96368 L16.1906556,19.99668 L16.159228,20.02816 L16.1277604,20.05816 L16.0932978,20.08368 L16.0587953,20.10916 L16.0873078,20.10468 L16.114223,20.10164 L16.141178,20.10016 L16.1680932,20.09864 L16.1950483,20.09712 L16.2219634,20.09712 L16.2489185,20.09864 L16.2758336,20.10016 L16.3013111,20.10316 L16.3282662,20.10616 L16.3551814,20.10916 L16.3806589,20.11516 L16.4330516,20.12716 L16.4854842,20.14068 L16.5109218,20.14968 L16.5349218,20.16016 L16.5588819,20.17216 L16.5814043,20.18416 L16.6023694,20.19768 L16.621817,20.2112 L16.6413045,20.22772 L16.6592346,20.2442 L16.6772047,20.2622 L16.6936572,20.2802 L16.7086323,20.3012 L16.7221298,20.3222 L16.7356273,20.34472 L16.7476073,20.3672 L16.7580699,20.39272 L16.7686922,20.41804 M15.9330449,19.59152 L15.9240599,19.57052 L15.9150749,19.55104 L15.9060899,19.53304 L15.8956273,19.51504 L15.8851248,19.49856 L15.8731448,19.48356 L15.8611647,19.46852 L15.8476672,19.45504 L15.8326922,19.44296 L15.8191947,19.43244 L15.8027421,19.42196 L15.7862895,19.41296 L15.7698369,19.40548 L15.7518669,19.39948 L15.7339368,19.39348 L15.7144493,19.389 L15.6950017,19.38448 L15.6755541,19.38148 L15.654589,19.37996 L15.6351414,19.37848 L15.6141764,19.37848 L15.5931314,19.37848 L15.5721664,19.37848 L15.5497238,19.38148 L15.5062762,19.38744 L15.4613511,19.39644 L15.416426,19.40844 L15.3699834,19.42348 L14.8563594,19.608 L15.1048652,20.30396 L15.6005591,20.12548 L15.624599,20.11652 L15.6470815,20.10752 L15.6695241,20.097 L15.6904892,20.08804 L15.7114542,20.076 L15.7309018,20.06552 L15.7503894,20.05352 L15.7683195,20.04152 L15.7862895,20.028 L15.8042596,20.01448 L15.8207121,20.001 L15.8372047,19.986 L15.8536572,19.971 L15.8686323,19.95596 L15.8821298,19.93948 L15.8956273,19.92296 L15.9090849,19.90648 L15.9195874,19.88848 L15.9300499,19.87048 L15.9375175,19.85252 L15.945025,19.833 L15.951015,19.81352 L15.9555275,19.79404 L15.9585225,19.77304 L15.9600399,19.75204 L15.9600399,19.73104 L15.9585225,19.70852 L15.9570449,19.68604 L15.9525324,19.66352 L15.9465424,19.63952 L15.9405524,19.61552 L15.9330449,19.59152 M16.3568586,20.565 L16.3463561,20.53948 L16.3358935,20.51548 L16.3239135,20.49296 L16.310416,20.47196 L16.2969185,20.45248 L16.2819434,20.43452 L16.2654908,20.41804 L16.2475208,20.40296 L16.2295907,20.38796 L16.2101032,20.37596 L16.1891381,20.36548 L16.168173,20.35648 L16.1457304,20.34896 L16.1217704,20.34148 L16.0977704,20.33696 L16.0707754,20.33396 L16.0452978,20.33096 L16.0183827,20.33096 L15.9914276,20.32944 L15.96599,20.32944 L15.9120799,20.33244 L15.8581697,20.33844 L15.8027421,20.34744 L15.7488319,20.35944 L15.6934043,20.37444 L15.6380166,20.39244 L15.1932779,20.55296 L15.4792812,21.35244 L15.8731048,21.21144 L15.9105225,21.19792 L15.9479401,21.1844 L15.9824027,21.1694 L16.0153478,21.1544 L16.0482928,21.1394 L16.0797205,21.12292 L16.1082329,21.10792 L16.1366656,21.09144 L16.1635807,21.07496 L16.1890582,21.05848 L16.2130183,21.04196 L16.2355008,21.02396 L16.2564659,21.00596 L16.2759135,20.988 L16.2938835,20.97 L16.3103361,20.952 L16.3267887,20.93252 L16.3402862,20.91304 L16.3522662,20.89204 L16.3627288,20.87096 L16.3717138,20.84848 L16.3777038,20.82596 L16.3836938,20.80344 L16.3866889,20.77944 L16.3897238,20.75544 L16.3897238,20.72992 L16.3882063,20.7044 L16.3852113,20.6774 L16.3806988,20.6504 L16.3747088,20.62192 L16.3657637,20.59496 L16.3568586,20.565" id="Shape" stroke="#FFFFFF" stroke-width="0.4834"></path>
                    </g>
                </g>
                <path d="M35.3336653,13.6060606 L35.3336653,8.57575758 L43.7420319,8.57575758 L43.7420319,11.8484848 C43.7838648,13.0606121 43.156381,13.6464648 41.8595618,13.6060606 L40.2280876,13.6060606 L40.2280876,14.7575758 L44.5577689,14.7575758 L44.5577689,15.7878788 L40.4790837,15.7878788 C40.8555796,16.7575806 42.25696,17.5252497 44.6832669,18.0909091 L44.6832669,19 C42.1732942,18.5959576 40.4163397,17.8484903 39.4123506,16.7575758 C38.4083615,17.9292988 36.7141553,18.6767661 34.3296813,19 L34.3296813,18.0909091 C36.5886567,17.5656539 37.9482049,16.7979848 38.4083665,15.7878788 L34.4551793,15.7878788 L34.4551793,14.7575758 L38.5966135,14.7575758 L38.5966135,13.6060606 L35.3336653,13.6060606 Z M30.313745,8.45454545 L30.313745,7.42424242 L31.8197211,7.42424242 L31.8197211,5.06060606 L33.3256972,5.06060606 L33.3256972,7.42424242 L34.6434263,7.42424242 L34.6434263,8.45454545 L33.3884462,8.45454545 C33.7231092,10.1111194 34.183264,11.4646412 34.7689243,12.5151515 L34.7689243,14.030303 C34.1414311,13.1010055 33.6603602,12.2525291 33.3256972,11.4848485 L33.3256972,19 L31.8197211,19 L31.8197211,12.2121212 C31.2758937,13.6262697 30.6693261,14.7979752 30,15.7272727 L30,14.0909091 C30.8366576,12.2727182 31.4223091,10.3939491 31.7569721,8.45454545 L30.313745,8.45454545 Z M40.6673307,8.15151515 L40.6673307,7.06060606 L38.3456175,7.06060606 L38.3456175,8.15151515 L36.9023904,8.15151515 L36.9023904,7.06060606 L34.6434263,7.06060606 L34.6434263,6.09090909 L36.9023904,6.09090909 L36.9023904,5 L38.3456175,5 L38.3456175,6.09090909 L40.6673307,6.09090909 L40.6673307,5 L42.1733068,5 L42.1733068,6.09090909 L44.4950199,6.09090909 L44.4950199,7.06060606 L42.1733068,7.06060606 L42.1733068,8.15151515 L40.6673307,8.15151515 Z M36.8396414,12.6969697 L41.3575697,12.6969697 C41.9850629,12.7373739 42.2778887,12.4343467 42.2360558,11.7878788 L42.2360558,11.4242424 L36.8396414,11.4242424 L36.8396414,12.6969697 Z M36.8396414,9.48484848 L36.8396414,10.6363636 L42.2360558,10.6363636 L42.2360558,9.48484848 L36.8396414,9.48484848 Z M52.9033865,18.8787879 L52.9033865,17.9090909 C54.1583728,17.3030273 55.183263,16.6161655 55.9780876,15.8484848 C54.9740986,14.7171661 54.2002019,13.1818279 53.6563745,11.2424242 L55.2250996,11.2424242 C55.6434284,12.7373812 56.1872476,13.9292885 56.8565737,14.8181818 C57.6095655,13.7676715 58.1743009,12.2525352 58.5507968,10.2727273 L53.2798805,10.2727273 L53.2798805,13.3636364 C53.4053791,15.9495079 52.5059857,17.828277 50.5816733,19 L50.5816733,17.8484848 C51.5019966,16.9191873 51.9203191,15.5454636 51.8366534,13.7272727 L51.8366534,5.90909091 L57.3585657,5.90909091 C58.3207219,5.90909091 59.3874443,5.76767818 60.5587649,5.48484848 L60.5587649,6.63636364 C59.512943,6.83838485 58.4671367,6.93939394 57.4213147,6.93939394 L53.2798805,6.93939394 L53.2798805,9.24242424 L60.1195219,9.24242424 L60.1195219,10.2727273 C59.7011931,12.6969818 58.8854642,14.5757509 57.6723108,15.9090909 C58.4671354,16.6767715 59.4920256,17.3434315 60.747012,17.9090909 L60.747012,18.8787879 C59.0318639,18.1919158 57.7350642,17.4848521 56.8565737,16.7575758 C55.727086,17.5656606 54.4093701,18.2727242 52.9033865,18.8787879 Z M46.251992,8.27272727 L46.251992,7.24242424 L48.0717131,7.24242424 L48.0717131,5 L49.5776892,5 L49.5776892,7.24242424 L51.2091633,7.24242424 L51.2091633,8.27272727 L49.6404382,8.27272727 C50.0169342,10.0101097 50.5607534,11.424237 51.2719124,12.5151515 L51.2719124,14.030303 C50.5607534,13.1414097 49.996018,12.2727315 49.5776892,11.4242424 L49.5776892,18.9393939 L48.0717131,18.9393939 L48.0717131,11.9090909 C47.5697186,13.1616224 46.8794865,14.4747406 46.000996,15.8484848 L46.000996,14.2727273 C46.9631522,12.2525152 47.6324682,10.2525352 48.0089641,8.27272727 L46.251992,8.27272727 Z M63.1942231,7.36363636 L63.1942231,6.21212121 L75.8067729,6.21212121 L75.8067729,7.36363636 L70.4103586,7.36363636 L70.4103586,16.9393939 L76.685259,16.9393939 L76.685259,17.969697 L62.3784861,17.969697 L62.3784861,16.9393939 L68.6533865,16.9393939 L68.6533865,7.36363636 L63.1942231,7.36363636 Z M78.5677291,6.87878788 L78.5677291,5.84848485 L81.2659363,5.84848485 C81.9770952,5.84848485 82.7928241,5.72727394 83.7131474,5.48484848 L83.7131474,6.57575758 C83.2529857,6.73737455 82.6673342,6.83838364 81.9561753,6.87878788 L81.9561753,9 L83.6503984,9 L83.6503984,10.030303 L82.0816733,10.030303 C82.4163363,11.3232388 82.9601556,12.4747424 83.7131474,13.4848485 L83.7131474,14.8787879 C82.8764898,13.9494903 82.2908383,13.202023 81.9561753,12.6363636 L81.9561753,19 L80.4501992,19 L80.4501992,13 C79.9482047,14.1313188 79.174308,15.3030242 78.1284861,16.5151515 L78.1284861,15 C79.0488094,13.5454473 79.7808738,11.8888982 80.3247012,10.030303 L78.3794821,10.030303 L78.3794821,9 L80.4501992,9 L80.4501992,6.87878788 L78.5677291,6.87878788 Z M83.9641434,12.3939394 L83.9641434,11.3636364 L92.560757,11.3636364 L92.560757,12.3939394 L89.0468127,12.3939394 L89.0468127,14.2727273 L92.1842629,14.2727273 L92.1842629,15.3030303 L89.0468127,15.3030303 L89.0468127,17.4242424 L93,17.4242424 L93,18.3333333 L83.2111554,18.3333333 L83.2111554,17.4242424 L87.4153386,17.4242424 L87.4153386,15.3030303 L84.2151394,15.3030303 L84.2151394,14.2727273 L87.4153386,14.2727273 L87.4153386,12.3939394 L83.9641434,12.3939394 Z M84.4661355,10.030303 L84.4661355,5.78787879 L92.0587649,5.78787879 L92.0587649,8.27272727 C92.1005978,9.48485455 91.4312818,10.0707073 90.0507968,10.030303 L84.4661355,10.030303 Z M85.9721116,9 L89.6115538,9 C90.2808798,9.04040424 90.5946217,8.75757879 90.5527888,8.15151515 L90.5527888,6.81818182 L85.9721116,6.81818182 L85.9721116,9 Z" id="模板工程" fill="#FFFFFF"></path>
            </g>
        </g>
    </g>
</svg>