<svg height="16" viewBox="0 0 16 16" width="16" xmlns="http://www.w3.org/2000/svg"><path d="m95.2964824 366.421106v-1.421106c-1.4140703.140704-2.7015075.703518-3.7427136 1.554774l.998995 1.00603c.7809045-.605025 1.7165829-1.013065 2.7437186-1.139698zm5.1497486.133668c-1.0412059-.851256-2.3286431-1.41407-3.7427134-1.554774v1.421106c1.0271357.126633 1.9628141.534673 2.7437186 1.139698zm1.132663 4.741708h1.421106c-.140704-1.41407-.703518-2.701507-1.554774-3.742713l-1.00603.998995c.605025.780904 1.013065 1.716583 1.139698 2.743718zm-10.01809-2.743718-1.0060301-.998995c-.8512563 1.041206-1.4140704 2.328643-1.5547739 3.742713h1.4211055c.1266332-1.027135.5346734-1.962814 1.1396985-2.743718zm-1.1396985 4.150754h-1.4211055c.1407035 1.41407.7035176 2.701507 1.5547739 3.742713l1.0060301-1.00603c-.6050251-.773869-1.0130653-1.709548-1.1396985-2.736683zm10.0180905 2.743718 1.00603 1.00603c.851256-1.041206 1.41407-2.335678 1.554774-3.742713h-1.421106c-.126633 1.0201-.534673 1.955779-1.139698 2.736683zm-3.7356784 2.131658v1.421106c1.4140703-.140704 2.7015075-.703518 3.7427134-1.554774l-1.00603-1.00603c-.7738693.605025-1.7095477 1.013065-2.7366834 1.139698zm-5.1497488-.133668.998995-1.00603c.7809045.605025 1.7165829 1.013065 2.7437186 1.139698v1.421106c-1.4070352-.140704-2.7015075-.703518-3.7427136-1.554774zm6.4462312-5.445226c0 1.106667-.8933333 2-2 2s-2-.893333-2-2 .8933333-2 2-2 2 .893333 2 2z" fill="#909399" fill-rule="evenodd" transform="translate(-88 -364)"/></svg>