<svg height="16" viewBox="0 0 16 16" width="16" xmlns="http://www.w3.org/2000/svg"><path d="m674 302.476829c-.825 0-1.5.672156-1.5 1.49368 0 .821525.675 1.493681 1.5 1.493681s1.5-.672156 1.5-1.493681c0-.821524-.675-1.49368-1.5-1.49368zm4.5 1.49368c0-2.472041-2.0175-4.481041-4.5-4.481041s-4.5 2.009-4.5 4.481041c0 1.657986.9075 3.099388 2.25 3.876101l.75-1.299502c-.8925-.522788-1.5-1.471275-1.5-2.576599 0-1.650517 1.3425-2.987361 3-2.987361s3 1.336844 3 2.987361c0 1.105324-.6075 2.053811-1.5 2.576599l.75 1.299502c1.3425-.776713 2.25-2.218115 2.25-3.876101zm-11.5 0c0 2.579089 1.407 4.823593 3.493 6.029491l.7-1.205898c-1.666-.968901-2.793-2.760322-2.793-4.823593 0-3.080965 2.506-5.576407 5.6-5.576407s5.6 2.495442 5.6 5.576407c0 2.063271-1.127 3.854692-2.8 4.823593l.7 1.205898c2.093-1.205898 3.5-3.450402 3.5-6.029491 0-3.847721-3.136-6.970509-7-6.970509s-7 3.122788-7 6.970509z" fill="#909399" fill-rule="evenodd" transform="translate(-666 -295)"/></svg>