<svg height="16" viewBox="0 0 16 16" width="16" xmlns="http://www.w3.org/2000/svg"><g fill="#909399" fill-rule="evenodd" transform="translate(2)"><path d="m6.15387709 10.4615385c-2.37908588 0-4.30772324-1.92860611-4.30772324-4.30769235 0-2.3791509 1.92863736-4.3076923 4.30772324-4.3076923 2.379024 0 4.30766141 1.92860607 4.30766141 4.3076923 0 2.37908624-1.92863741 4.30769235-4.30766141 4.30769235m-.00003094-10.4615385c-3.39872982 0-6.15384615 2.75523634-6.15384615 6.15391229s2.75511633 6.15378001 6.15384615 6.15378001c3.39872983 0 6.15384615-2.75510406 6.15384615-6.15378001 0-3.39874209-2.7551796-6.15391229-6.15384615-6.15391229m0 13.5384615c3.39873405 0 6.15384615 1.0492349 6.15384615 2.1538385 0 0 0 .3077-.3619866.3077h-11.58371909c-.36198661 0-.36198661-.3077-.36198661-.3077 0-1.1046036 2.75525968-2.1538385 6.15384615-2.1538385"/><path d="m7.88706606 3.61136987c.19101384.18558916.30981373.44504495.30981373.73241649 0 .56420772-.45731696 1.02151418-1.0214741 1.02151418-.5642141 0-1.02158801-.45730646-1.02158801-1.02151418 0-.56414819.45737391-1.02145465 1.02158801-1.02145465.08975486 0 .17671912.01166628.25963985.03339176-.39005777-.17892271-.82396785-.27880039-1.28117091-.27880039-1.69930555 0-3.07695155 1.37763347-3.07695155 3.0769826 0 1.6992896 1.377646 3.07686355 3.07695155 3.07686355 1.6993625 0 3.0768946-1.37757395 3.0768946-3.07686355-.00005695-1.05645351-.53254931-1.98850633-1.34370317-2.54253581"/></g></svg>