<svg height="16" viewBox="0 0 16 16" width="16" xmlns="http://www.w3.org/2000/svg"><path d="m101.39327 689.368017s1.151651.495299 1.108997 3.0561c0 .094844.03199.17915.095971.24238l.37322.36884c.181278.17915.490518.105382.565162-.12646.245259-.716602.618479-2.097116.394547-3.330094v-.031615c-.010664-.158074-.170615-1.728277-2.943107-3.793779-.063981-.042153-.127962-.06323-.202606-.06323-.330566 0-1.3009383-.084306-1.2796114-1.243516 0-.084306-.0319903-.158074-.0853075-.221304l-.8530745-.843062c-.1386246-.136997-.3518932-.136997-.4798544 0l-1.6741587 1.654509c-.1386246.136998-.1386246.347763 0 .484761l.7144499.716603c.0533171.052691.1279611.084306.2026052.094844.4905178.052691 2.324628.358301 1.5995147 2.13927-.0213269.042153-.0426537.073768-.074644.105383-.394547.389916-3.1243855 3.108791-3.7322011 3.72001-.074644.073768-.1812783.115921-.298576.094845l-.4052104-.06323c-.1066343-.010538-.2132687.021077-.2985761.094845l-4.2653726 4.21531c-.0533172.052691-.0853075.115921-.0959709.17915-.0533172.284534-.1279612 1.085442.4905178 1.612356 0 0 .4478642.537452 1.3969096.569067.0959709 0 .1919417-.031615.2559223-.105383l4.201392-4.310154c.0426538-.052691.0746441-.115921.0853075-.179151l.0533172-.516375c.0106634-.073768.0426537-.147536.0959708-.200227l4.3506796-4.27854c.010664-.010538.021327-.021076.021327-.031615.074644-.063229.30924-.326686.68246-.010538zm-8.2854863.653373 1.0023626.990598c.1386246.136998.3518932.136998.4905178 0l1.4288998-1.401591c.1386246-.136997.1386246-.347763 0-.48476l-1.0663431-1.053828c-.0959709-.094844-.1279612-.231842-.074644-.358301 1.2902752-3.351171-2.9857609-4.668456-2.9857609-4.668456-.4158738-.105382-.5758253-.010538-.6398059.12646-.0639805.136997-.0106634.295071.0959709.389916 1.6101782 1.348899 1.3435924 1.791507 1.3435924 1.791507-.2132686 1.570202-1.5355341 2.213037-1.6528319 2.265729 0 0-.0106634 0-.0106634.010538-1.1409872.463684-2.1220229-.684988-2.4739161-1.180287-.1706149-.24238-.5651619-.115921-.5651619.179151 0 .021076 0 .042153.0106634.063229 1.0023626 4.320693 3.9348063 3.551399 4.7345636 3.245789.1279612-.042153.2665858-.010538.3625567.084306zm4.521295 4.647379 3.9241423 4.131004c.127962.136997.351894.147536.490518.010538l1.663496-1.643971c.138624-.136997.138624-.347763 0-.48476l-4.1267484-3.930777c-.1386246-.126459-.3518932-.126459-.4798544 0l-1.4608901 1.443744c-.1279612.126459-.1279612.337225-.0106634.474222z" fill="#909399" transform="translate(-88 -683)"/></svg>