<svg height="16" viewBox="0 0 16 16" width="16" xmlns="http://www.w3.org/2000/svg"><path d="m101.9877 652.844221 1.877081 1.286432c.163224.080402.163224.321608.081612.482412l-1.632244 2.814071c-.081612.160804-.326449.241206-.489673.160804l-2.0403047-.80402c-.4080609.321608-.897734.562814-1.3874071.80402l-.3264487 2.090452c0 .160804-.2448366.321608-.408061.321608h-3.2644873c-.2448366 0-.4080609-.160804-.4080609-.321608l-.3264488-2.090452c-.4896731-.241206-.9793462-.482412-1.3874071-.80402l-2.0403046.80402c-.2448365.080402-.4080609 0-.4896731-.080402l-1.6322437-2.814071c-.0816121-.160804-.0816121-.321608.0816122-.482412l1.7138559-1.366834c-.0816122-.241206-.0816122-.482412-.0816122-.80402s.0816122-.562814.0816122-.80402l-1.7138559-1.286432c-.1632243-.160804-.2448365-.40201-.1632243-.482412l1.6322436-2.814071c.1632244-.160804.3264488-.241206.5712853-.160804l1.9586924.80402c.4896731-.321608.897734-.643216 1.3874072-.80402l.3264487-2.170854c0-.160804.2448365-.321608.4080609-.321608h3.2644874c.1632243 0 .4080609.160804.3264487.40201l.3264487 2.090452c.4896731.241206.9793462.482412 1.3874072.80402l2.040305-.80402c.244836-.080402.40806 0 .489673.080402l1.632243 2.814071c.081613.160804.081613.321608-.081612.482412l-1.713856 1.366834c.081612.241206.081612.482412.081612.80402s-.081612.562814-.081612.80402zm-6.0393013 2.01005c1.5506315 0 2.8564264-1.286432 2.8564264-2.81407s-1.3057949-2.81407-2.8564264-2.81407-2.8564265 1.286432-2.8564265 2.81407 1.305795 2.81407 2.8564265 2.81407z" fill="#909399" fill-rule="evenodd" transform="translate(-88 -644)"/></svg>