<svg height="16" viewBox="0 0 16 16" width="16" xmlns="http://www.w3.org/2000/svg"><path d="m96 97c-4.416 0-8 3.584-8 8s3.584 8 8 8 8-3.584 8-8-3.584-8-8-8zm-.8 14.344c-3.16-.392-5.6-3.08-5.6-6.344 0-.496.064-.968.168-1.432l3.832 3.832v.8c0 .88.72 1.6 1.6 1.6zm5.52-2.032c-.208-.648-.8-1.112-1.52-1.112h-.8v-2.4c0-.44-.36-.8-.8-.8h-4.8v-1.6h1.6c.44 0 .8-.36.8-.8v-1.6h1.6c.88 0 1.6-.72 1.6-1.6v-.328c2.344.952 4 3.248 4 5.928 0 1.664-.64 3.176-1.68 4.312z" fill="#909399" fill-rule="evenodd" transform="translate(-88 -97)"/></svg>