<svg height="16" viewBox="0 0 16 16" width="16" xmlns="http://www.w3.org/2000/svg"><path d="m674 477c-3.864 0-7 3.136-7 7s3.136 7 7 7 7-3.136 7-7-3.136-7-7-7zm-2.692308 10.769231c-.891692 0-1.615384-.723693-1.615384-1.615385s.723692-1.615384 1.615384-1.615384c.891693 0 1.615385.723692 1.615385 1.615384s-.723692 1.615385-1.615385 1.615385zm5.384616 0c-.891693 0-1.615385-.723693-1.615385-1.615385s.723692-1.615384 1.615385-1.615384c.891692 0 1.615384.723692 1.615384 1.615384s-.723692 1.615385-1.615384 1.615385zm-4.307693-6.461539c0-.891692.723693-1.615384 1.615385-1.615384s1.615385.723692 1.615385 1.615384c0 .891693-.723693 1.615385-1.615385 1.615385s-1.615385-.723692-1.615385-1.615385z" fill="#909399" fill-rule="evenodd" transform="translate(-666 -476)"/></svg>