<svg height="16" viewBox="0 0 16 16" width="16" xmlns="http://www.w3.org/2000/svg"><path d="m667 237v2.153846c1.291111 0 2.153846-.862735 2.153846-2.153846zm7 0c0 3.865556-3.134444 7-7 7v1.615385c4.728889 0 8.615385-3.894274 8.615385-8.615385zm-3.230769 0c0 2.146667-1.622564 3.769231-3.769231 3.769231v1.615384c3.01 0 5.384615-2.374615 5.384615-5.384615zm3.230769 14c0-3.865556 3.134444-7 7-7v-1.615385c-4.721111 0-8.615385 3.894274-8.615385 8.615385zm7 0v-2.153846c-1.291111 0-2.153846.862735-2.153846 2.153846zm-3.769231 0c0-2.146667 1.622564-3.769231 3.769231-3.769231v-1.615384c-3.01 0-5.384615 2.374615-5.384615 5.384615z" fill="#909399" fill-rule="evenodd" transform="translate(-666 -236)"/></svg>